<?xml version="1.0" encoding="UTF-8" standalone="no"?>
<!-- Created with Inkscape (http://www.inkscape.org/) -->

<svg
   width="270mm"
   height="270mm"
   viewBox="0 0 269.99999 270"
   version="1.1"
   id="svg9399"
   inkscape:version="1.2.2 (b0a8486541, 2022-12-01)"
   sodipodi:docname="favicon.svg"
   inkscape:export-filename="left_flower.png"
   inkscape:export-xdpi="200"
   inkscape:export-ydpi="200"
   xmlns:inkscape="http://www.inkscape.org/namespaces/inkscape"
   xmlns:sodipodi="http://sodipodi.sourceforge.net/DTD/sodipodi-0.dtd"
   xmlns="http://www.w3.org/2000/svg"
   xmlns:svg="http://www.w3.org/2000/svg">
  <defs
     id="defs87" />
  <sodipodi:namedview
     id="namedview9401"
     pagecolor="#ffffff"
     bordercolor="#666666"
     borderopacity="1.0"
     inkscape:showpageshadow="2"
     inkscape:pageopacity="0"
     inkscape:pagecheckerboard="0"
     inkscape:deskcolor="#d1d1d1"
     inkscape:document-units="mm"
     showgrid="false"
     inkscape:zoom="0.69931958"
     inkscape:cx="775.03907"
     inkscape:cy="509.78124"
     inkscape:window-width="1920"
     inkscape:window-height="1011"
     inkscape:window-x="0"
     inkscape:window-y="0"
     inkscape:window-maximized="1"
     inkscape:current-layer="layer1" />
  <g
     inkscape:label="Calque 1"
     inkscape:groupmode="layer"
     id="layer1"
     transform="translate(101.28544,-15.898101)">
    <g
       id="g397"
       transform="translate(25.861601,0.31721331)">
      <g
         id="g324"
         transform="matrix(0.35277777,0,0,-0.35277777,-17.238806,72.739957)">
        <path
           d="m 0,0 c 37.392,-36.919 31.12,-63.849 5.035,-86.701 -45.63,-39.976 24.646,-116.942 19.717,-175.414 -9.858,-92.579 -44.363,-185.158 -31.369,-284.191"
           style="fill:none;stroke:#056634;stroke-width:1;stroke-linecap:butt;stroke-linejoin:miter;stroke-miterlimit:10;stroke-dasharray:none;stroke-opacity:1"
           id="path326" />
      </g>
      <g
         id="g328"
         transform="matrix(0.35277777,0,0,-0.35277777,30.29179,190.70267)">
        <path
           d="m 0,0 c 0,0 -1.643,-32.686 -18.074,-52.176 -16.431,-19.491 -49.292,-48.726 -62.437,-43.041 -13.144,5.684 -35.786,0 -35.786,0 0,0 -23.357,4.06 10.322,33.296 33.68,29.235 58.326,30.859 58.326,30.859 z"
           style="fill:#3fab36;fill-opacity:1;fill-rule:nonzero;stroke:none"
           id="path330" />
      </g>
      <g
         id="g332"
         transform="matrix(0.35277777,0,0,-0.35277777,30.29179,190.70267)">
        <path
           d="m 0,0 c 0,0 -1.643,-32.686 -18.074,-52.176 -16.431,-19.491 -49.292,-48.726 -62.437,-43.041 -13.144,5.684 -35.786,0 -35.786,0 0,0 -23.357,4.06 10.322,33.296 33.68,29.235 58.326,30.859 58.326,30.859 z"
           style="fill:none;stroke:#056634;stroke-width:1;stroke-linecap:butt;stroke-linejoin:miter;stroke-miterlimit:10;stroke-dasharray:none;stroke-opacity:1"
           id="path334" />
      </g>
      <g
         id="g336"
         transform="matrix(0.35277777,0,0,-0.35277777,-21.464378,114.56748)">
        <path
           d="M 0,0 C -27.456,-6.497 -53.745,-8.121 -55.388,12.994 -57.031,34.108 -78.391,69.84 -78.391,69.84 v 56.847 l 29.575,-43.853 c 0,0 3.286,-16.242 24.646,-32.484 C -2.81,34.108 -2.12,25.987 0,17.866 2.12,9.745 0,0 0,0"
           style="fill:#3fab36;fill-opacity:1;fill-rule:nonzero;stroke:none"
           id="path338" />
      </g>
      <g
         id="g340"
         transform="matrix(0.35277777,0,0,-0.35277777,-21.464378,114.56748)">
        <path
           d="M 0,0 C -27.456,-6.497 -53.745,-8.121 -55.388,12.994 -57.031,34.108 -78.391,69.84 -78.391,69.84 v 56.847 l 29.575,-43.853 c 0,0 3.286,-16.242 24.646,-32.484 C -2.81,34.108 -2.12,25.987 0,17.866 2.12,9.745 0,0 0,0 Z"
           style="fill:none;stroke:#056634;stroke-width:1;stroke-linecap:butt;stroke-linejoin:miter;stroke-miterlimit:10;stroke-dasharray:none;stroke-opacity:1"
           id="path342" />
      </g>
      <g
         id="g344"
         transform="matrix(0.35277777,0,0,-0.35277777,8.3872181,140.37441)">
        <path
           d="m 0,0 c 9.513,-16.177 52.233,-28.99 52.233,-28.99 0,0 11.502,3.184 26.289,14.495 14.788,11.311 31.219,55.255 31.219,55.255 L 54.87,21.179 H 8.121 Z"
           style="fill:#3fab36;fill-opacity:1;fill-rule:nonzero;stroke:none"
           id="path346" />
      </g>
      <g
         id="g348"
         transform="matrix(0.35277777,0,0,-0.35277777,8.3872181,140.37441)">
        <path
           d="m 0,0 c 9.513,-16.177 52.233,-28.99 52.233,-28.99 0,0 11.502,3.184 26.289,14.495 14.788,11.311 31.219,55.255 31.219,55.255 L 54.87,21.179 H 8.121 Z"
           style="fill:none;stroke:#056634;stroke-width:1;stroke-linecap:butt;stroke-linejoin:miter;stroke-miterlimit:10;stroke-dasharray:none;stroke-opacity:1"
           id="path350" />
      </g>
      <g
         id="g352"
         transform="matrix(0.35277777,0,0,-0.35277777,-18.728904,162.51086)">
        <path
           d="m 0,0 c -31.924,-2.154 -46.711,7.952 -56.57,33.759 -9.858,25.806 -37.791,74.532 -37.791,74.532 l -9.858,9.745 c 0,0 11.501,-16.242 32.861,-25.987 21.36,-9.745 52.114,-38.981 52.114,-38.981 0,0 4.682,0.362 12.432,-19.309 C 0.938,14.088 0,0 0,0"
           style="fill:#3fab36;fill-opacity:1;fill-rule:nonzero;stroke:none"
           id="path354" />
      </g>
      <g
         id="g356"
         transform="matrix(0.35277777,0,0,-0.35277777,-18.728904,162.51086)">
        <path
           d="m 0,0 c -31.924,-2.154 -46.711,7.952 -56.57,33.759 -9.858,25.806 -37.791,74.532 -37.791,74.532 l -9.858,9.745 c 0,0 11.501,-16.242 32.861,-25.987 21.36,-9.745 52.114,-38.981 52.114,-38.981 0,0 4.682,0.362 12.432,-19.309 C 0.938,14.088 0,0 0,0 Z"
           style="fill:none;stroke:#056634;stroke-width:1;stroke-linecap:butt;stroke-linejoin:miter;stroke-miterlimit:10;stroke-dasharray:none;stroke-opacity:1"
           id="path358" />
      </g>
      <g
         id="g360"
         transform="matrix(0.35277777,0,0,-0.35277777,30.29179,101.38893)">
        <path
           d="m 0,0 c 0,0 -14.788,-21.115 -27.932,-40.605 -13.145,-19.49 -54.222,-30.86 -57.508,-50.35 -3.286,-19.49 -22.5,-48.545 -22.5,-48.545"
           style="fill:none;stroke:#056634;stroke-width:1;stroke-linecap:butt;stroke-linejoin:miter;stroke-miterlimit:10;stroke-dasharray:none;stroke-opacity:1"
           id="path362" />
      </g>
      <g
         id="g364"
         transform="matrix(0.35277777,0,0,-0.35277777,-38.685542,138.63267)">
        <path
           d="m 0,0 c 23.003,-30.86 74.287,-81.21 69.184,-92.579 -5.104,-11.37 5.468,-55.021 5.468,-55.021"
           style="fill:none;stroke:#056634;stroke-width:1;stroke-linecap:butt;stroke-linejoin:miter;stroke-miterlimit:10;stroke-dasharray:none;stroke-opacity:1"
           id="path366" />
      </g>
      <g
         id="g368"
         transform="matrix(0.35277777,0,0,-0.35277777,17.539685,201.66055)">
        <path
           d="m 0,0 c -32.862,-19.49 -79.084,-56.847 -84.727,-71.465 -5.642,-14.617 -25.836,-56.847 -25.836,-56.847"
           style="fill:none;stroke:#056634;stroke-width:1;stroke-linecap:butt;stroke-linejoin:miter;stroke-miterlimit:10;stroke-dasharray:none;stroke-opacity:1"
           id="path370" />
      </g>
      <g
         id="g372"
         transform="matrix(0.35277777,0,0,-0.35277777,-43.902314,85.345483)">
        <path
           d="m 0,0 c 3.286,-12.994 8.215,-29.236 21.36,-45.477 13.145,-16.242 33.552,-32.484 42.244,-37.357 8.691,-4.873 30.051,-27.611 30.051,-27.611"
           style="fill:none;stroke:#056634;stroke-width:1;stroke-linecap:butt;stroke-linejoin:miter;stroke-miterlimit:10;stroke-dasharray:none;stroke-opacity:1"
           id="path374" />
      </g>
      <g
         id="g376"
         transform="matrix(0.35277777,0,0,-0.35277777,-1.9623644,139.93675)">
        <path
           d="m 0,0 c 42.137,-1.176 45.423,-2.072 63.497,0 18.074,2.072 50.935,19.939 50.935,19.939"
           style="fill:none;stroke:#056634;stroke-width:1;stroke-linecap:butt;stroke-linejoin:miter;stroke-miterlimit:10;stroke-dasharray:none;stroke-opacity:1"
           id="path378" />
      </g>
      <g
         id="g380"
         transform="matrix(0.35277777,0,0,-0.35277777,30.29179,90.215827)">
        <path
           d="M 0,0 -30.397,21.521 -44.363,21.927 -53.97,3.248 c 0,0 0.57,-17.866 12.893,-25.175 12.323,-7.309 42.424,-22.738 42.424,-22.738 0,0 14.262,5.684 16.316,8.121 C 19.717,-34.108 0,0 0,0"
           style="fill:#ea4b94;fill-opacity:1;fill-rule:nonzero;stroke:none"
           id="path382" />
      </g>
      <g
         id="g384"
         transform="matrix(0.35277777,0,0,-0.35277777,31.451053,83.913029)">
        <path
           d="M 0,0 C 4.929,24.363 -10.214,34.108 5.162,39.793 20.538,45.477 9.858,52.786 32.04,44.665 54.222,36.544 62.437,31.672 64.902,20.302 67.366,8.933 73.938,2.436 64.902,-8.933 55.865,-20.302 47.649,-24.621 36.969,-25.71 26.289,-26.799 5.162,-14.618 5.162,-14.618 Z"
           style="fill:#ea4b94;fill-opacity:1;fill-rule:nonzero;stroke:none"
           id="path386" />
      </g>
      <g
         id="g388"
         transform="matrix(0.35277777,0,0,-0.35277777,29.01805,86.98396)">
        <path
           d="m 0,0 c -2.238,0.629 -4.285,1.263 -6.174,1.905 -9.624,3.27 -15.118,6.721 -20.612,10.454 -6.573,4.467 -13.145,20.709 -13.145,28.018 0,7.309 -12.323,17.866 0,23.551 12.323,5.684 11.454,16.242 23.39,6.496 C -4.605,60.679 9.005,44.437 12.059,40.377 15.112,36.316 15.796,16.718 14.818,13.172 13.84,9.625 0,0 0,0"
           style="fill:#ea4b94;fill-opacity:1;fill-rule:nonzero;stroke:none"
           id="path390" />
      </g>
      <g
         id="g392"
         transform="matrix(0.35277777,0,0,-0.35277777,48.840316,93.007252)">
        <path
           d="m 0,0 c 0,0 24.032,-5.893 20.231,-19.699 -3.8,-13.805 16.839,-20.302 -9.912,-26.799 -26.75,-6.497 -34.732,-13.806 -47.172,0 -12.439,13.806 -7.277,19.49 -7.277,33.296 0,13.806 7.277,17.054 7.277,17.054 z"
           style="fill:#ea4b94;fill-opacity:1;fill-rule:nonzero;stroke:none"
           id="path394" />
      </g>
      <g
         id="g396"
         transform="matrix(0.35277777,0,0,-0.35277777,28.137446,89.069864)">
        <path
           d="m 0,0 c 0,-5.831 6.516,-10.557 14.555,-10.557 8.038,0 14.555,4.726 14.555,10.557 0,5.831 -6.517,10.557 -14.555,10.557 C 6.516,10.557 0,5.831 0,0"
           style="fill:#1d9dd9;fill-opacity:1;fill-rule:nonzero;stroke:none"
           id="path398" />
      </g>
      <g
         id="g400"
         transform="matrix(0.35277777,0,0,-0.35277777,28.137446,89.069864)">
        <path
           d="m 0,0 c 0,-5.831 6.516,-10.557 14.555,-10.557 8.038,0 14.555,4.726 14.555,10.557 0,5.831 -6.517,10.557 -14.555,10.557 C 6.516,10.557 0,5.831 0,0 Z"
           style="fill:none;stroke:#302d7e;stroke-width:1;stroke-linecap:butt;stroke-linejoin:miter;stroke-miterlimit:10;stroke-dasharray:none;stroke-opacity:1"
           id="path402" />
      </g>
      <g
         id="g404"
         transform="matrix(0.35277777,0,0,-0.35277777,-21.132061,43.517893)">
        <path
           d="m 0,0 c -36.613,18.678 -39.078,36.544 -34.149,43.041 4.93,6.497 1.535,18.678 21.717,23.551 C 7.75,71.465 5.845,82.834 21.585,76.337 37.325,69.84 56.396,57.659 56.308,48.726 56.221,39.793 60.673,27.336 54.339,19.759 48.005,12.181 24.894,0 24.894,0 Z"
           style="fill:#ea4b94;fill-opacity:1;fill-rule:nonzero;stroke:none"
           id="path406" />
      </g>
      <g
         id="g408"
         transform="matrix(0.35277777,0,0,-0.35277777,-10.862736,44.663856)">
        <path
           d="M 0,0 C 0,0 -9.858,16.242 18.074,27.611 46.006,38.981 35.326,47.433 58.329,42.395 81.332,37.357 99.406,30.89 96.12,21.942 92.834,12.994 91.191,0 86.262,-10.557 c -4.93,-10.558 -5.751,-22.195 -16.431,-24.091 -10.68,-1.896 -9.859,-3.521 -29.576,-3.521 -19.717,0 -23.68,8.95 -32.378,11.378 l -8.699,2.428 z"
           style="fill:#ea4b94;fill-opacity:1;fill-rule:nonzero;stroke:none"
           id="path410" />
      </g>
      <g
         id="g412"
         transform="matrix(0.35277777,0,0,-0.35277777,-18.716345,51.557804)">
        <path
           d="m 0,0 c 0,0 -13.064,-8.933 -24.566,-13.806 -11.501,-4.872 -16.95,-8.933 -18.333,-17.054 -1.383,-8.121 0.26,-25.987 13.404,-24.363 13.145,1.624 8.906,-5.892 21.705,-0.103 12.8,5.788 14.227,-1.521 25.836,8.224 11.61,9.745 18.182,9.039 21.468,18.325 3.287,9.287 9.376,3.593 0,14.971 C 30.139,-2.428 12.578,3.867 12.578,3.867 Z"
           style="fill:#ea4b94;fill-opacity:1;fill-rule:nonzero;stroke:none"
           id="path414" />
      </g>
      <g
         id="g416"
         transform="matrix(0.35277777,0,0,-0.35277777,-35.125556,36.547428)">
        <path
           d="m 0,0 c -21.593,-0.268 -25.7,-1.54 -37.202,-8.213 -11.502,-6.673 -18.895,-17.23 -11.502,-25.351 7.394,-8.121 12.324,-15.43 30.397,-20.303 18.074,-4.873 17.253,-4.773 28.754,-3.789 11.502,0.985 36.067,10.286 36.067,10.286 v 27.22 c 0,0 -15.528,28.815 -24.565,29.627 C 12.912,10.289 0,0 0,0"
           style="fill:#ea4b94;fill-opacity:1;fill-rule:nonzero;stroke:none"
           id="path418" />
      </g>
      <g
         id="g420"
         transform="matrix(0.35277777,0,0,-0.35277777,-21.132061,48.388237)">
        <path
           d="m 0,0 c 0,-5.831 6.516,-10.557 14.555,-10.557 8.038,0 14.555,4.726 14.555,10.557 0,5.831 -6.517,10.557 -14.555,10.557 C 6.516,10.557 0,5.831 0,0"
           style="fill:#1d9dd9;fill-opacity:1;fill-rule:nonzero;stroke:none"
           id="path422" />
      </g>
      <g
         id="g424"
         transform="matrix(0.35277777,0,0,-0.35277777,-21.132061,48.388237)">
        <path
           d="m 0,0 c 0,-5.831 6.516,-10.557 14.555,-10.557 8.038,0 14.555,4.726 14.555,10.557 0,5.831 -6.517,10.557 -14.555,10.557 C 6.516,10.557 0,5.831 0,0 Z"
           style="fill:none;stroke:#302d7e;stroke-width:1;stroke-linecap:butt;stroke-linejoin:miter;stroke-miterlimit:10;stroke-dasharray:none;stroke-opacity:1"
           id="path426" />
      </g>
      <g
         id="g428"
         transform="matrix(0.35277777,0,0,-0.35277777,-15.138261,34.670473)">
        <path
           d="M 0,0 -4.871,-27.068"
           style="fill:none;stroke:#302d7e;stroke-width:1;stroke-linecap:butt;stroke-linejoin:miter;stroke-miterlimit:10;stroke-dasharray:none;stroke-opacity:1"
           id="path430" />
      </g>
      <g
         id="g432"
         transform="matrix(0.35277777,0,0,-0.35277777,-18.885502,51.690343)">
        <path
           d="M 0,0 -24.086,-13.746"
           style="fill:none;stroke:#302d7e;stroke-width:1;stroke-linecap:butt;stroke-linejoin:miter;stroke-miterlimit:10;stroke-dasharray:none;stroke-opacity:1"
           id="path434" />
      </g>
      <g
         id="g436"
         transform="matrix(0.35277777,0,0,-0.35277777,-30.108069,45.893287)">
        <path
           d="M 0,0 26.024,-9.699"
           style="fill:none;stroke:#302d7e;stroke-width:1;stroke-linecap:butt;stroke-linejoin:miter;stroke-miterlimit:10;stroke-dasharray:none;stroke-opacity:1"
           id="path438" />
      </g>
      <g
         id="g440"
         transform="matrix(0.35277777,0,0,-0.35277777,-3.4300611,43.130367)">
        <path
           d="M 0,0 -26.385,-8.694"
           style="fill:none;stroke:#302d7e;stroke-width:1;stroke-linecap:butt;stroke-linejoin:miter;stroke-miterlimit:10;stroke-dasharray:none;stroke-opacity:1"
           id="path442" />
      </g>
      <g
         id="g444"
         transform="matrix(0.35277777,0,0,-0.35277777,-1.2676744,50.329926)">
        <path
           d="M 0,0 H -27.812"
           style="fill:none;stroke:#302d7e;stroke-width:1;stroke-linecap:butt;stroke-linejoin:miter;stroke-miterlimit:10;stroke-dasharray:none;stroke-opacity:1"
           id="path446" />
      </g>
      <g
         id="g448"
         transform="matrix(0.35277777,0,0,-0.35277777,-16.5904,52.254999)">
        <path
           d="M 0,0 8.233,-26.26"
           style="fill:none;stroke:#302d7e;stroke-width:1;stroke-linecap:butt;stroke-linejoin:miter;stroke-miterlimit:10;stroke-dasharray:none;stroke-opacity:1"
           id="path450" />
      </g>
      <g
         id="g452"
         transform="matrix(0.35277777,0,0,-0.35277777,38.406772,89.069864)">
        <path
           d="M 0,0 H 17.252"
           style="fill:none;stroke:#302d7e;stroke-width:1;stroke-linecap:butt;stroke-linejoin:miter;stroke-miterlimit:10;stroke-dasharray:none;stroke-opacity:1"
           id="path454" />
      </g>
      <g
         id="g456"
         transform="matrix(0.35277777,0,0,-0.35277777,36.088175,85.345483)">
        <path
           d="M 0,0 2.465,17.054"
           style="fill:none;stroke:#302d7e;stroke-width:1;stroke-linecap:butt;stroke-linejoin:miter;stroke-miterlimit:10;stroke-dasharray:none;stroke-opacity:1"
           id="path458" />
      </g>
      <g
         id="g460"
         transform="matrix(0.35277777,0,0,-0.35277777,30.29179,85.345483)">
        <path
           d="M 0,0 -7.221,16.242"
           style="fill:none;stroke:#302d7e;stroke-width:1;stroke-linecap:butt;stroke-linejoin:miter;stroke-miterlimit:10;stroke-dasharray:none;stroke-opacity:1"
           id="path462" />
      </g>
      <g
         id="g464"
         transform="matrix(0.35277777,0,0,-0.35277777,28.137446,89.069864)">
        <path
           d="M 0,0 -8.681,-14.618"
           style="fill:none;stroke:#302d7e;stroke-width:1;stroke-linecap:butt;stroke-linejoin:miter;stroke-miterlimit:10;stroke-dasharray:none;stroke-opacity:1"
           id="path466" />
      </g>
      <g
         id="g468"
         transform="matrix(0.35277777,0,0,-0.35277777,38.406772,99.097008)">
        <path
           d="M 0,0 -14.555,17.866"
           style="fill:none;stroke:#302d7e;stroke-width:1;stroke-linecap:butt;stroke-linejoin:miter;stroke-miterlimit:10;stroke-dasharray:none;stroke-opacity:1"
           id="path470" />
      </g>
      <g
         id="g976"
         transform="matrix(0.35277777,0,0,-0.35277777,98.502712,275.53094)">
        <path
           d="M 0,0 C 6.102,11.315 13.094,21.821 20.9,31.193 16.037,38.646 9.381,48.831 7.969,50.9 5.691,54.24 -1.144,83.183 -4.941,70.938 -8.738,58.693 -42.152,16.392 -42.152,16.392 l 37.97,84.602 41.008,60.113 c 0,0 -9.112,0 -14.429,-7.792 C 17.082,145.522 -4.182,109.9 -21.648,87.636 -39.114,65.372 -55.062,9.712 -55.062,9.712 c 0,0 9.113,33.396 9.873,50.094 0.759,16.698 59.993,142.489 59.993,142.489 l 37.21,47.868 c 0,0 -52.398,-51.207 -59.233,-59 -6.835,-7.792 -33.414,-50.093 -49.362,-63.452 -9.159,-7.673 -15.057,-32.229 -18.423,-51.751 l 15.386,111.864 59.234,163.64 31.135,55.66 c 0,0 -28.097,-22.264 -44.045,-45.641 -15.948,-23.377 -40.249,-86.83 -46.324,-100.188 -6.075,-13.358 -28.858,-122.452 -34.173,-136.923 -5.317,-14.472 -6.835,-83.49 -6.835,-83.49 0,0 -11.391,175.885 -11.391,202.602 0,26.717 -18.985,83.49 -26.579,103.527 -7.595,20.038 -41.768,60.113 -41.768,60.113 0,0 36.452,-86.83 39.489,-111.32 3.038,-24.49 19.745,-149.168 15.948,-175.885 -3.679,-25.882 -3.794,-116.536 -3.797,-122.176 v 58.724 c 0,0 -31.895,104.64 -33.414,121.338 -1.519,16.698 -71.384,96.848 -88.851,113.546 -17.466,16.698 -37.97,18.925 -37.97,18.925 0,0 43.286,-50.094 59.993,-70.111 16.707,-20.018 43.287,-99.095 53.159,-140.284 9.871,-41.188 -2.279,-14.471 -4.557,-8.905 -2.278,5.566 -27.339,53.433 -41.768,67.905 -14.428,14.471 -32.654,48.981 -50.88,69.018 -18.225,20.038 -48.602,10.019 -61.512,7.793 -12.909,-2.227 -26.579,-5.567 -18.226,-7.793 8.354,-2.226 54.678,-35.622 80.498,-53.433 25.82,-17.812 45.564,-93.509 45.564,-93.509 0,0 -32.655,47.867 -53.158,61.226 -20.504,13.358 -25.061,11.132 -37.97,11.132 -12.911,0 -28.098,-6.679 -28.098,-6.679 0,0 30.375,-4.453 50.88,-14.472 20.504,-10.019 28.857,-28.943 50.12,-61.226 21.264,-32.283 22.782,-73.471 22.782,-73.471 0,0 5.317,-23.377 30.377,-24.49 25.061,-1.114 159.475,12.245 179.979,24.49 C -9.777,-1.339 -5.706,-0.52 0,0"
           style="fill:#056634;fill-opacity:1;fill-rule:nonzero;stroke:none"
           id="path978" />
      </g>
      <g
         id="g980"
         transform="matrix(0.35277777,0,0,-0.35277777,98.502712,275.53094)">
        <path
           d="M 0,0 C 6.102,11.315 13.094,21.821 20.9,31.193 16.037,38.646 9.381,48.831 7.969,50.9 5.691,54.24 -1.144,83.183 -4.941,70.938 -8.738,58.693 -42.152,16.392 -42.152,16.392 l 37.97,84.602 41.008,60.113 c 0,0 -9.112,0 -14.429,-7.792 C 17.082,145.522 -4.182,109.9 -21.648,87.636 -39.114,65.372 -55.062,9.712 -55.062,9.712 c 0,0 9.113,33.396 9.873,50.094 0.759,16.698 59.993,142.489 59.993,142.489 l 37.21,47.868 c 0,0 -52.398,-51.207 -59.233,-59 -6.835,-7.792 -33.414,-50.093 -49.362,-63.452 -9.159,-7.673 -15.057,-32.229 -18.423,-51.751 l 15.386,111.864 59.234,163.64 31.135,55.66 c 0,0 -28.097,-22.264 -44.045,-45.641 -15.948,-23.377 -40.249,-86.83 -46.324,-100.188 -6.075,-13.358 -28.858,-122.452 -34.173,-136.923 -5.317,-14.472 -6.835,-83.49 -6.835,-83.49 0,0 -11.391,175.885 -11.391,202.602 0,26.717 -18.985,83.49 -26.579,103.527 -7.595,20.038 -41.768,60.113 -41.768,60.113 0,0 36.452,-86.83 39.489,-111.32 3.038,-24.49 19.745,-149.168 15.948,-175.885 -3.679,-25.882 -3.794,-116.536 -3.797,-122.176 v 58.724 c 0,0 -31.895,104.64 -33.414,121.338 -1.519,16.698 -71.384,96.848 -88.851,113.546 -17.466,16.698 -37.97,18.925 -37.97,18.925 0,0 43.286,-50.094 59.993,-70.111 16.707,-20.018 43.287,-99.095 53.159,-140.284 9.871,-41.188 -2.279,-14.471 -4.557,-8.905 -2.278,5.566 -27.339,53.433 -41.768,67.905 -14.428,14.471 -32.654,48.981 -50.88,69.018 -18.225,20.038 -48.602,10.019 -61.512,7.793 -12.909,-2.227 -26.579,-5.567 -18.226,-7.793 8.354,-2.226 54.678,-35.622 80.498,-53.433 25.82,-17.812 45.564,-93.509 45.564,-93.509 0,0 -32.655,47.867 -53.158,61.226 -20.504,13.358 -25.061,11.132 -37.97,11.132 -12.911,0 -28.098,-6.679 -28.098,-6.679 0,0 30.375,-4.453 50.88,-14.472 20.504,-10.019 28.857,-28.943 50.12,-61.226 21.264,-32.283 22.782,-73.471 22.782,-73.471 0,0 5.317,-23.377 30.377,-24.49 25.061,-1.114 159.475,12.245 179.979,24.49 C -9.777,-1.339 -5.706,-0.52 0,0 Z"
           style="fill:none;stroke:#018e39;stroke-width:1;stroke-linecap:butt;stroke-linejoin:miter;stroke-miterlimit:10;stroke-dasharray:none;stroke-opacity:1"
           id="path982" />
      </g>
      <g
         id="g984"
         transform="matrix(0.35277777,0,0,-0.35277777,24.235301,272.02768)">
        <path
           d="M 0,0 C 6.102,11.315 13.094,21.821 20.9,31.193 16.037,38.646 9.381,48.831 7.969,50.9 5.691,54.24 -1.144,83.183 -4.941,70.938 -8.738,58.693 -42.152,16.392 -42.152,16.392 l 37.97,84.602 41.008,60.113 c 0,0 -9.112,0 -14.429,-7.792 C 17.082,145.522 -4.182,109.9 -21.648,87.636 -39.114,65.372 -55.062,9.712 -55.062,9.712 c 0,0 9.113,33.396 9.873,50.094 0.759,16.698 59.993,142.489 59.993,142.489 l 37.21,47.868 c 0,0 -52.398,-51.207 -59.233,-59 -6.835,-7.792 -33.414,-50.093 -49.362,-63.452 -9.159,-7.673 -15.057,-32.229 -18.423,-51.751 l 15.386,111.864 59.234,163.64 31.135,55.66 c 0,0 -28.098,-22.264 -44.045,-45.641 -15.948,-23.377 -40.249,-86.83 -46.324,-100.188 -6.075,-13.358 -28.858,-122.452 -34.173,-136.923 -5.317,-14.472 -6.835,-83.49 -6.835,-83.49 0,0 -11.391,175.885 -11.391,202.602 0,26.716 -18.985,83.49 -26.579,103.527 -7.595,20.038 -41.768,60.113 -41.768,60.113 0,0 36.452,-86.83 39.489,-111.32 3.038,-24.49 19.745,-149.168 15.948,-175.885 -3.679,-25.882 -3.794,-116.536 -3.798,-122.176 v 58.724 c 0,0 -31.894,104.64 -33.413,121.338 -1.519,16.698 -71.384,96.848 -88.851,113.546 -17.466,16.698 -37.97,18.925 -37.97,18.925 0,0 43.286,-50.094 59.993,-70.111 16.707,-20.018 43.287,-99.095 53.158,-140.284 9.872,-41.188 -2.278,-14.471 -4.556,-8.905 -2.278,5.566 -27.339,53.433 -41.768,67.905 -14.428,14.471 -32.654,48.981 -50.88,69.018 -18.225,20.038 -48.602,10.019 -61.512,7.792 -12.909,-2.226 -26.579,-5.566 -18.226,-7.792 8.354,-2.226 54.678,-35.622 80.498,-53.433 25.82,-17.812 45.564,-93.509 45.564,-93.509 0,0 -32.655,47.867 -53.158,61.226 -20.504,13.358 -25.061,11.132 -37.97,11.132 -12.911,0 -28.098,-6.679 -28.098,-6.679 0,0 30.375,-4.453 50.88,-14.472 20.503,-10.019 28.857,-28.943 50.12,-61.226 21.264,-32.283 22.782,-73.471 22.782,-73.471 0,0 5.317,-23.377 30.377,-24.49 25.061,-1.114 159.475,12.245 179.979,24.49 C -9.777,-1.339 -5.706,-0.52 0,0"
           style="fill:#056634;fill-opacity:1;fill-rule:nonzero;stroke:none"
           id="path986" />
      </g>
      <g
         id="g988"
         transform="matrix(0.35277777,0,0,-0.35277777,24.235301,272.02768)">
        <path
           d="M 0,0 C 6.102,11.315 13.094,21.821 20.9,31.193 16.037,38.646 9.381,48.831 7.969,50.9 5.691,54.24 -1.144,83.183 -4.941,70.938 -8.738,58.693 -42.152,16.392 -42.152,16.392 l 37.97,84.602 41.008,60.113 c 0,0 -9.112,0 -14.429,-7.792 C 17.082,145.522 -4.182,109.9 -21.648,87.636 -39.114,65.372 -55.062,9.712 -55.062,9.712 c 0,0 9.113,33.396 9.873,50.094 0.759,16.698 59.993,142.489 59.993,142.489 l 37.21,47.868 c 0,0 -52.398,-51.207 -59.233,-59 -6.835,-7.792 -33.414,-50.093 -49.362,-63.452 -9.159,-7.673 -15.057,-32.229 -18.423,-51.751 l 15.386,111.864 59.234,163.64 31.135,55.66 c 0,0 -28.098,-22.264 -44.045,-45.641 -15.948,-23.377 -40.249,-86.83 -46.324,-100.188 -6.075,-13.358 -28.858,-122.452 -34.173,-136.923 -5.317,-14.472 -6.835,-83.49 -6.835,-83.49 0,0 -11.391,175.885 -11.391,202.602 0,26.716 -18.985,83.49 -26.579,103.527 -7.595,20.038 -41.768,60.113 -41.768,60.113 0,0 36.452,-86.83 39.489,-111.32 3.038,-24.49 19.745,-149.168 15.948,-175.885 -3.679,-25.882 -3.794,-116.536 -3.798,-122.176 v 58.724 c 0,0 -31.894,104.64 -33.413,121.338 -1.519,16.698 -71.384,96.848 -88.851,113.546 -17.466,16.698 -37.97,18.925 -37.97,18.925 0,0 43.286,-50.094 59.993,-70.111 16.707,-20.018 43.287,-99.095 53.158,-140.284 9.872,-41.188 -2.278,-14.471 -4.556,-8.905 -2.278,5.566 -27.339,53.433 -41.768,67.905 -14.428,14.471 -32.654,48.981 -50.88,69.018 -18.225,20.038 -48.602,10.019 -61.512,7.792 -12.909,-2.226 -26.579,-5.566 -18.226,-7.792 8.354,-2.226 54.678,-35.622 80.498,-53.433 25.82,-17.812 45.564,-93.509 45.564,-93.509 0,0 -32.655,47.867 -53.158,61.226 -20.504,13.358 -25.061,11.132 -37.97,11.132 -12.911,0 -28.098,-6.679 -28.098,-6.679 0,0 30.375,-4.453 50.88,-14.472 20.503,-10.019 28.857,-28.943 50.12,-61.226 21.264,-32.283 22.782,-73.471 22.782,-73.471 0,0 5.317,-23.377 30.377,-24.49 25.061,-1.114 159.475,12.245 179.979,24.49 C -9.777,-1.339 -5.706,-0.52 0,0 Z"
           style="fill:none;stroke:#018e39;stroke-width:1;stroke-linecap:butt;stroke-linejoin:miter;stroke-miterlimit:10;stroke-dasharray:none;stroke-opacity:1"
           id="path990" />
      </g>
    </g>
  </g>
</svg>
