<?xml version="1.0" encoding="UTF-8" standalone="no"?>
<!-- Created with Inkscape (http://www.inkscape.org/) -->

<svg
   width="162.73688mm"
   height="170.89844mm"
   viewBox="0 0 162.73688 170.89844"
   version="1.1"
   id="svg4613"
   inkscape:version="1.2.2 (b0a8486541, 2022-12-01)"
   sodipodi:docname="left_butterfly.svg"
   xmlns:inkscape="http://www.inkscape.org/namespaces/inkscape"
   xmlns:sodipodi="http://sodipodi.sourceforge.net/DTD/sodipodi-0.dtd"
   xmlns="http://www.w3.org/2000/svg"
   xmlns:svg="http://www.w3.org/2000/svg">
  <sodipodi:namedview
     id="namedview4615"
     pagecolor="#ffffff"
     bordercolor="#666666"
     borderopacity="1.0"
     inkscape:showpageshadow="2"
     inkscape:pageopacity="0.0"
     inkscape:pagecheckerboard="0"
     inkscape:deskcolor="#d1d1d1"
     inkscape:document-units="mm"
     showgrid="false"
     inkscape:zoom="0.24724681"
     inkscape:cx="-630.94848"
     inkscape:cy="-95.046727"
     inkscape:window-width="1920"
     inkscape:window-height="1011"
     inkscape:window-x="0"
     inkscape:window-y="0"
     inkscape:window-maximized="1"
     inkscape:current-layer="layer1" />
  <g
     inkscape:label="Calque 1"
     inkscape:groupmode="layer"
     id="layer1"
     transform="translate(-130.62434,-224.517)">
    <g
       id="g720"
       transform="matrix(0.35277777,0,0,-0.35277777,212.13643,309.67099)"
       >
      <path
         d="m 0,0 c 0.798,-23.334 -4.968,-24.112 -5.052,-40.212 -0.085,-16.101 -10.744,-40.308 -8.238,-51.039 2.506,-10.73 5.279,-64.988 9.782,-72.721 4.503,-7.734 -0.38,-15.745 13.205,-38.264 13.584,-22.518 10.405,-24.093 26.586,-31.991 16.181,-7.897 23.421,-11.98 31.482,-5.477 8.06,6.503 22.402,12.391 24.402,18.472 2,6.08 20.058,42.987 21.539,47.377 1.481,4.39 3.336,15.274 10.583,20.442 7.246,5.168 24.918,17.079 26.771,24.879 1.853,7.801 8.221,26.369 5.493,35.054 -2.729,8.684 -9.815,23.383 -9.815,23.383 l 16.629,-0.722 c 0,0 20.104,0.498 22.62,5.186 2.516,4.688 24.925,26.33 25.075,30.778 0.151,4.448 11.692,21.421 10.81,28.655 -0.882,7.234 8.601,42.114 8.236,47.955 -0.366,5.841 -6.489,23.238 -10.846,29.252 -4.356,6.014 -20.688,9.464 -20.688,9.464 L 157.559,87.39 92.81,81.976 Z"
         style="fill:#cbbba0;fill-opacity:1;fill-rule:nonzero;stroke:none"
         id="path722" />
    </g>
    <g
       id="g724"
       transform="matrix(0.35277777,0,0,-0.35277777,212.13643,309.67099)"
       >
      <path
         d="m 0,0 c 0.798,-23.334 -4.968,-24.112 -5.052,-40.212 -0.085,-16.101 -10.744,-40.308 -8.238,-51.039 2.506,-10.73 5.279,-64.988 9.782,-72.721 4.503,-7.734 -0.38,-15.745 13.205,-38.264 13.584,-22.518 10.405,-24.093 26.586,-31.991 16.181,-7.897 23.421,-11.98 31.482,-5.477 8.06,6.503 22.402,12.391 24.402,18.472 2,6.08 20.058,42.987 21.539,47.377 1.481,4.39 3.336,15.274 10.583,20.442 7.246,5.168 24.918,17.079 26.771,24.879 1.853,7.801 8.221,26.369 5.493,35.054 -2.729,8.684 -9.815,23.383 -9.815,23.383 l 16.629,-0.722 c 0,0 20.104,0.498 22.62,5.186 2.516,4.688 24.925,26.33 25.075,30.778 0.151,4.448 11.692,21.421 10.81,28.655 -0.882,7.234 8.601,42.114 8.236,47.955 -0.366,5.841 -6.489,23.238 -10.846,29.252 -4.356,6.014 -20.688,9.464 -20.688,9.464 L 157.559,87.39 92.81,81.976 Z"
         style="fill:none;stroke:#be1823;stroke-width:0.25;stroke-linecap:butt;stroke-linejoin:miter;stroke-miterlimit:10;stroke-dasharray:none;stroke-opacity:1"
         id="path726" />
    </g>
    <g
       id="g728"
       transform="matrix(0.35277777,0,0,-0.35277777,208.95903,304.21461)"
       >
      <path
         d="m 0,0 c 0,0 -26.611,-5.013 -42.131,-3.312 -15.519,1.702 -44.361,2.114 -44.361,2.114 0,0 -28.175,3.468 -32.923,6.054 -4.748,2.587 -25.368,3.481 -32.386,9.611 -7.017,6.129 -14.185,7.811 -22.977,12.989 -8.792,5.179 -9.603,6.927 -19.577,13.527 -9.973,6.6 -11.446,14.545 -18.906,22.749 -7.459,8.205 -9.672,15.496 -8.265,19.204 1.407,3.708 1.824,16.404 7.093,23.524 5.27,7.12 11.93,19.783 24.163,21.342 12.233,1.56 33.225,4.075 45.056,11.443 11.83,7.367 21.011,22.552 36.014,26.102 15.003,3.55 32.522,7.929 37.546,4.97 5.024,-2.959 4.586,5.283 15.813,-5.14 l 11.228,-10.424 c 0,0 -2.946,15.889 1.346,24.612 4.293,8.722 23.006,30.182 32.395,33.543 9.389,3.362 32.008,8.548 35.408,9.086 3.401,0.538 31.786,6.502 41.687,2.303 9.901,-4.199 16.04,3.073 24.902,-7.591 8.863,-10.663 11.67,-12.498 15.657,-18.839 3.987,-6.34 4.423,-17.666 4.268,-28.281 -0.155,-10.615 -17.455,-96.27 -17.455,-96.27 z"
         style="fill:#cbbba0;fill-opacity:1;fill-rule:nonzero;stroke:none"
         id="path730" />
    </g>
    <g
       id="g732"
       transform="matrix(0.35277777,0,0,-0.35277777,208.95903,304.21461)"
       >
      <path
         d="m 0,0 c 0,0 -26.611,-5.013 -42.131,-3.312 -15.519,1.702 -44.361,2.114 -44.361,2.114 0,0 -28.175,3.468 -32.923,6.054 -4.748,2.587 -25.368,3.481 -32.386,9.611 -7.017,6.129 -14.185,7.811 -22.977,12.989 -8.792,5.179 -9.603,6.927 -19.577,13.527 -9.973,6.6 -11.446,14.545 -18.906,22.749 -7.459,8.205 -9.672,15.496 -8.265,19.204 1.407,3.708 1.824,16.404 7.093,23.524 5.27,7.12 11.93,19.783 24.163,21.342 12.233,1.56 33.225,4.075 45.056,11.443 11.83,7.367 21.011,22.552 36.014,26.102 15.003,3.55 32.522,7.929 37.546,4.97 5.024,-2.959 4.586,5.283 15.813,-5.14 l 11.228,-10.424 c 0,0 -2.946,15.889 1.346,24.612 4.293,8.722 23.006,30.182 32.395,33.543 9.389,3.362 32.008,8.548 35.408,9.086 3.401,0.538 31.786,6.502 41.687,2.303 9.901,-4.199 16.04,3.073 24.902,-7.591 8.863,-10.663 11.67,-12.498 15.657,-18.839 3.987,-6.34 4.423,-17.666 4.268,-28.281 -0.155,-10.615 -17.455,-96.27 -17.455,-96.27 z"
         style="fill:none;stroke:#be1823;stroke-width:0.25;stroke-linecap:butt;stroke-linejoin:miter;stroke-miterlimit:10;stroke-dasharray:none;stroke-opacity:1"
         id="path734" />
    </g>
    <g
       id="g736"
       transform="matrix(0.35277777,0,0,-0.35277777,198.88013,310.68611)"
       >
      <path
         d="m 0,0 c -13.896,-1.796 -22.441,-2.057 -29.241,-3.132 -6.801,-1.076 -10.717,-0.22 -17.59,1.106 -6.873,1.326 -11.38,2.892 -12.785,2.268 -1.405,-0.625 -12.857,4.669 -3.698,-3.266 9.16,-7.936 10.123,-5.237 13.079,-5.708 2.956,-0.47 23.204,-4.775 24.979,-3.824 1.774,0.951 23.801,3.764 23.801,3.764 0,0 5.451,6.557 10.103,0.187 C 13.3,-14.974 7.552,-24.259 6.145,-27.967 4.738,-31.675 2.652,-56.94 2.134,-58.63 1.615,-60.321 0.94,-75.711 1.086,-77.43 c 0.147,-1.72 -0.379,-15.745 3.467,-11.115 3.846,4.63 8.288,14.716 7.034,18.54 -1.254,3.823 -0.233,17.67 -0.233,17.67 l 3.293,28.796 17.825,19.443 c 0,0 62.858,52.437 68.407,60.42 5.548,7.983 76.245,67.961 76.249,74.128 0.004,6.168 1.735,8.715 -4.675,5.626 C 166.043,132.989 94.239,75.115 91.576,72.146 88.914,69.178 23.842,20.948 22.509,17.922 21.177,14.896 0,0 0,0"
         style="fill:#1e1f1d;fill-opacity:1;fill-rule:nonzero;stroke:none"
         id="path738" />
    </g>
    <g
       id="g740"
       transform="matrix(0.35277777,0,0,-0.35277777,243.58523,362.89115)"
       >
      <path
         d="M 0,0 C 3.37,2.976 8.283,2.763 10.975,-0.476 13.667,-3.715 13.118,-8.754 9.748,-11.73 6.379,-14.706 1.465,-14.493 -1.227,-11.254 -3.919,-8.015 -3.37,-2.976 0,0"
         style="fill:#02a19a;fill-opacity:1;fill-rule:nonzero;stroke:none"
         id="path742" />
    </g>
    <g
       id="g744"
       transform="matrix(0.35277777,0,0,-0.35277777,230.17865,360.93966)"
       >
      <path
         d="M 0,0 C 3.37,2.976 8.283,2.763 10.975,-0.476 13.667,-3.715 13.118,-8.754 9.748,-11.73 6.379,-14.706 1.465,-14.493 -1.227,-11.254 -3.919,-8.015 -3.37,-2.976 0,0"
         style="fill:#02a19a;fill-opacity:1;fill-rule:nonzero;stroke:none"
         id="path746" />
    </g>
    <g
       id="g748"
       transform="matrix(0.35277777,0,0,-0.35277777,215.81865,361.44646)"
       >
      <path
         d="M 0,0 C 3.37,2.976 8.283,2.763 10.975,-0.476 13.667,-3.715 13.118,-8.754 9.748,-11.73 6.379,-14.706 1.465,-14.493 -1.227,-11.254 -3.919,-8.015 -3.37,-2.976 0,0"
         style="fill:#02a19a;fill-opacity:1;fill-rule:nonzero;stroke:none"
         id="path750" />
    </g>
    <g
       id="g752"
       transform="matrix(0.35277777,0,0,-0.35277777,215.81865,361.44646)"
       >
      <path
         d="M 0,0 C 3.37,2.976 8.283,2.763 10.975,-0.476 13.667,-3.715 13.118,-8.754 9.748,-11.73 6.379,-14.706 1.465,-14.493 -1.227,-11.254 -3.919,-8.015 -3.37,-2.976 0,0"
         style="fill:#02a19a;fill-opacity:1;fill-rule:nonzero;stroke:none"
         id="path754" />
    </g>
    <g
       id="g756"
       transform="matrix(0.35277777,0,0,-0.35277777,139.07072,273.58736)"
       >
      <path
         d="M 0,0 C 3.37,2.976 8.283,2.763 10.975,-0.476 13.667,-3.715 13.118,-8.754 9.748,-11.73 6.379,-14.706 1.465,-14.493 -1.227,-11.254 -3.919,-8.015 -3.37,-2.976 0,0"
         style="fill:#02a19a;fill-opacity:1;fill-rule:nonzero;stroke:none"
         id="path758" />
    </g>
    <g
       id="g760"
       transform="matrix(0.35277777,0,0,-0.35277777,159.98233,262.29258)"
       >
      <path
         d="M 0,0 C 3.37,2.976 8.283,2.763 10.975,-0.476 13.667,-3.715 13.118,-8.754 9.748,-11.73 6.379,-14.706 1.465,-14.493 -1.227,-11.254 -3.919,-8.015 -3.37,-2.976 0,0"
         style="fill:#02a19a;fill-opacity:1;fill-rule:nonzero;stroke:none"
         id="path762" />
    </g>
    <g
       id="g764"
       transform="matrix(0.35277777,0,0,-0.35277777,200.23932,242.00836)"
       >
      <path
         d="M 0,0 C 3.37,2.976 8.283,2.763 10.975,-0.476 13.667,-3.715 13.118,-8.754 9.748,-11.73 6.379,-14.706 1.465,-14.493 -1.227,-11.254 -3.919,-8.015 -3.37,-2.976 0,0"
         style="fill:#e94f1d;fill-opacity:1;fill-rule:nonzero;stroke:none"
         id="path766" />
    </g>
    <g
       id="g768"
       transform="matrix(0.35277777,0,0,-0.35277777,212.3415,235.88526)"
       >
      <path
         d="M 0,0 C 3.37,2.976 8.283,2.763 10.975,-0.476 13.667,-3.715 13.118,-8.754 9.748,-11.73 6.379,-14.706 1.465,-14.493 -1.227,-11.254 -3.919,-8.015 -3.37,-2.976 0,0"
         style="fill:#e94f1d;fill-opacity:1;fill-rule:nonzero;stroke:none"
         id="path770" />
    </g>
    <g
       id="g772"
       transform="matrix(0.35277777,0,0,-0.35277777,203.80473,233.91451)"
       >
      <path
         d="M 0,0 C 3.37,2.976 8.283,2.763 10.975,-0.476 13.667,-3.715 13.118,-8.754 9.748,-11.73 6.379,-14.706 1.465,-14.493 -1.227,-11.254 -3.919,-8.015 -3.37,-2.976 0,0"
         style="fill:#e94f1d;fill-opacity:1;fill-rule:nonzero;stroke:none"
         id="path774" />
    </g>
    <g
       id="g776"
       transform="matrix(0.35277777,0,0,-0.35277777,225.92827,234.27032)"
       >
      <path
         d="M 0,0 C 3.37,2.976 8.283,2.763 10.975,-0.476 13.667,-3.715 13.118,-8.754 9.748,-11.73 6.379,-14.706 1.465,-14.493 -1.227,-11.254 -3.919,-8.015 -3.37,-2.976 0,0"
         style="fill:#e94f1d;fill-opacity:1;fill-rule:nonzero;stroke:none"
         id="path778" />
    </g>
    <g
       id="g780"
       transform="matrix(0.35277777,0,0,-0.35277777,232.14186,228.78212)"
       >
      <path
         d="M 0,0 C 3.37,2.976 8.283,2.763 10.975,-0.476 13.667,-3.715 13.118,-8.754 9.748,-11.73 6.379,-14.706 1.465,-14.493 -1.227,-11.254 -3.919,-8.015 -3.37,-2.976 0,0"
         style="fill:#e94f1d;fill-opacity:1;fill-rule:nonzero;stroke:none"
         id="path782" />
    </g>
    <g
       id="g784"
       transform="matrix(0.35277777,0,0,-0.35277777,220.23338,228.91469)"
       >
      <path
         d="M 0,0 C 3.37,2.976 8.283,2.763 10.975,-0.476 13.667,-3.715 13.118,-8.754 9.748,-11.73 6.379,-14.706 1.465,-14.493 -1.227,-11.254 -3.919,-8.015 -3.37,-2.976 0,0"
         style="fill:#e94f1d;fill-opacity:1;fill-rule:nonzero;stroke:none"
         id="path786" />
    </g>
    <g
       id="g788"
       transform="matrix(0.35277777,0,0,-0.35277777,232.22917,247.84006)"
       >
      <path
         d="M 0,0 C 3.37,2.976 8.283,2.763 10.975,-0.476 13.667,-3.715 13.118,-8.754 9.748,-11.73 6.379,-14.706 1.465,-14.493 -1.227,-11.254 -3.919,-8.015 -3.37,-2.976 0,0"
         style="fill:#e94f1d;fill-opacity:1;fill-rule:nonzero;stroke:none"
         id="path790" />
    </g>
    <g
       id="g792"
       transform="matrix(0.35277777,0,0,-0.35277777,227.10324,253.64798)"
       >
      <path
         d="M 0,0 C 3.37,2.976 8.283,2.763 10.975,-0.476 13.667,-3.715 13.118,-8.754 9.748,-11.73 6.379,-14.706 1.465,-14.493 -1.227,-11.254 -3.919,-8.015 -3.37,-2.976 0,0"
         style="fill:#e94f1d;fill-opacity:1;fill-rule:nonzero;stroke:none"
         id="path794" />
    </g>
    <g
       id="g796"
       transform="matrix(0.35277777,0,0,-0.35277777,218.83663,245.32493)"
       >
      <path
         d="m 0,0 c 3.531,2.768 8.401,2.239 10.877,-1.18 2.476,-3.419 1.62,-8.434 -1.912,-11.202 -3.531,-2.767 -8.401,-2.239 -10.877,1.18 C -4.387,-7.783 -3.531,-2.768 0,0"
         style="fill:#e94f1d;fill-opacity:1;fill-rule:nonzero;stroke:none"
         id="path798" />
    </g>
    <g
       id="g800"
       transform="matrix(0.35277777,0,0,-0.35277777,219.68693,257.2352)"
       >
      <path
         d="m 0,0 c 3.531,2.768 8.401,2.239 10.877,-1.18 2.476,-3.419 1.62,-8.434 -1.912,-11.202 -3.531,-2.767 -8.401,-2.239 -10.876,1.18 C -4.387,-7.783 -3.531,-2.768 0,0"
         style="fill:#e94f1d;fill-opacity:1;fill-rule:nonzero;stroke:none"
         id="path802" />
    </g>
    <g
       id="g804"
       transform="matrix(0.35277777,0,0,-0.35277777,223.60788,265.35547)"
       >
      <path
         d="m 0,0 c 3.531,2.768 8.401,2.239 10.877,-1.18 2.476,-3.419 1.62,-8.434 -1.912,-11.202 -3.531,-2.767 -8.401,-2.239 -10.877,1.18 C -4.387,-7.783 -3.531,-2.768 0,0"
         style="fill:#e94f1d;fill-opacity:1;fill-rule:nonzero;stroke:none"
         id="path806" />
    </g>
    <g
       id="g808"
       transform="matrix(0.35277777,0,0,-0.35277777,224.20986,279.55284)"
       >
      <path
         d="m 0,0 c 3.531,2.768 8.401,2.239 10.877,-1.18 2.476,-3.419 1.62,-8.434 -1.912,-11.202 -3.531,-2.767 -8.401,-2.239 -10.876,1.18 C -4.387,-7.783 -3.531,-2.768 0,0"
         style="fill:#e94f1d;fill-opacity:1;fill-rule:nonzero;stroke:none"
         id="path810" />
    </g>
    <g
       id="g812"
       transform="matrix(0.35277777,0,0,-0.35277777,235.32553,237.58593)"
       >
      <path
         d="m 0,0 c 3.061,3.307 8.006,3.635 11.044,0.734 3.038,-2.901 3.019,-7.933 -0.042,-11.24 C 7.94,-13.812 2.996,-14.141 -0.042,-11.24 -3.08,-8.339 -3.061,-3.307 0,0"
         style="fill:#e94f1d;fill-opacity:1;fill-rule:nonzero;stroke:none"
         id="path814" />
    </g>
    <g
       id="g816"
       transform="matrix(0.35277777,0,0,-0.35277777,210.91222,261.39766)"
       >
      <path
         d="m 0,0 c 3.531,2.768 8.401,2.239 10.877,-1.18 2.476,-3.419 1.62,-8.434 -1.912,-11.202 -3.531,-2.767 -8.401,-2.239 -10.876,1.18 C -4.387,-7.783 -3.531,-2.768 0,0"
         style="fill:#e94f1d;fill-opacity:1;fill-rule:nonzero;stroke:none"
         id="path818" />
    </g>
    <g
       id="g820"
       transform="matrix(0.35277777,0,0,-0.35277777,216.52103,270.30092)"
       >
      <path
         d="m 0,0 c 3.531,2.768 8.401,2.239 10.877,-1.18 2.476,-3.419 1.62,-8.434 -1.912,-11.202 -3.531,-2.767 -8.401,-2.239 -10.876,1.18 C -4.387,-7.783 -3.531,-2.768 0,0"
         style="fill:#e94f1d;fill-opacity:1;fill-rule:nonzero;stroke:none"
         id="path822" />
    </g>
    <g
       id="g824"
       transform="matrix(0.35277777,0,0,-0.35277777,211.41514,250.68411)"
       >
      <path
         d="m 0,0 c 3.531,2.768 8.401,2.24 10.877,-1.18 2.476,-3.419 1.62,-8.434 -1.912,-11.202 -3.531,-2.767 -8.401,-2.239 -10.876,1.18 C -4.387,-7.783 -3.531,-2.768 0,0"
         style="fill:#e94f1d;fill-opacity:1;fill-rule:nonzero;stroke:none"
         id="path826" />
    </g>
    <g
       id="g828"
       transform="matrix(0.35277777,0,0,-0.35277777,199.7214,252.42303)"
       >
      <path
         d="m 0,0 c 3.531,2.768 8.401,2.239 10.877,-1.18 2.476,-3.419 1.62,-8.434 -1.912,-11.202 -3.531,-2.767 -8.401,-2.239 -10.876,1.18 C -4.387,-7.783 -3.531,-2.768 0,0"
         style="fill:#e94f1d;fill-opacity:1;fill-rule:nonzero;stroke:none"
         id="path830" />
    </g>
    <g
       id="g832"
       transform="matrix(0.35277777,0,0,-0.35277777,230.46464,262.92998)"
       >
      <path
         d="m 0,0 c 2.875,3.473 7.812,4.1 11.026,1.401 3.215,-2.7 3.49,-7.703 0.615,-11.177 -2.876,-3.473 -7.812,-4.1 -11.027,-1.4 C -2.6,-8.477 -2.875,-3.473 0,0"
         style="fill:#e94f1d;fill-opacity:1;fill-rule:nonzero;stroke:none"
         id="path834" />
    </g>
    <g
       id="g836"
       transform="matrix(0.35277777,0,0,-0.35277777,230.46464,262.92998)"
       >
      <path
         d="m 0,0 c 2.875,3.473 7.812,4.1 11.026,1.401 3.215,-2.7 3.49,-7.703 0.615,-11.177 -2.876,-3.473 -7.812,-4.1 -11.027,-1.4 C -2.6,-8.477 -2.875,-3.473 0,0"
         style="fill:#e94f1d;fill-opacity:1;fill-rule:nonzero;stroke:none"
         id="path838" />
    </g>
    <g
       id="g840"
       transform="matrix(0.35277777,0,0,-0.35277777,231.38829,273.2553)"
       >
      <path
         d="m 0,0 c 2.875,3.473 7.812,4.1 11.026,1.401 3.215,-2.7 3.49,-7.703 0.615,-11.177 -2.875,-3.473 -7.812,-4.1 -11.027,-1.401 C -2.6,-8.477 -2.875,-3.473 0,0"
         style="fill:#e94f1d;fill-opacity:1;fill-rule:nonzero;stroke:none"
         id="path842" />
    </g>
    <g
       id="g844"
       transform="matrix(0.35277777,0,0,-0.35277777,238.31155,253.92201)"
       >
      <path
         d="m 0,0 c 2.875,3.473 7.812,4.1 11.027,1.401 3.214,-2.7 3.489,-7.703 0.614,-11.177 -2.875,-3.473 -7.812,-4.1 -11.027,-1.401 C -2.6,-8.477 -2.875,-3.473 0,0"
         style="fill:#e94f1d;fill-opacity:1;fill-rule:nonzero;stroke:none"
         id="path846" />
    </g>
    <g
       id="g848"
       transform="matrix(0.35277777,0,0,-0.35277777,274.20535,284.63407)"
       >
      <path
         d="m 0,0 c 2.875,3.473 7.812,4.1 11.026,1.401 3.215,-2.7 3.49,-7.703 0.615,-11.177 -2.876,-3.473 -7.812,-4.1 -11.027,-1.401 C -2.6,-8.477 -2.875,-3.473 0,0"
         style="fill:#e94f1d;fill-opacity:1;fill-rule:nonzero;stroke:none"
         id="path850" />
    </g>
    <g
       id="g852"
       transform="matrix(0.35277777,0,0,-0.35277777,265.7143,284.38787)"
       >
      <path
         d="m 0,0 c 2.875,3.473 7.812,4.1 11.026,1.401 3.215,-2.7 3.49,-7.704 0.615,-11.177 -2.876,-3.473 -7.812,-4.1 -11.027,-1.401 C -2.6,-8.477 -2.875,-3.473 0,0"
         style="fill:#e94f1d;fill-opacity:1;fill-rule:nonzero;stroke:none"
         id="path854" />
    </g>
    <g
       id="g856"
       transform="matrix(0.35277777,0,0,-0.35277777,259.34949,288.70499)"
       >
      <path
         d="m 0,0 c 2.875,3.473 7.812,4.1 11.026,1.401 3.215,-2.7 3.49,-7.704 0.615,-11.177 -2.876,-3.473 -7.812,-4.1 -11.027,-1.401 C -2.6,-8.477 -2.875,-3.473 0,0"
         style="fill:#e94f1d;fill-opacity:1;fill-rule:nonzero;stroke:none"
         id="path858" />
    </g>
    <g
       id="g860"
       transform="matrix(0.35277777,0,0,-0.35277777,282.99848,289.15495)"
       >
      <path
         d="m 0,0 c 2.875,3.473 7.812,4.1 11.027,1.401 3.214,-2.7 3.489,-7.704 0.614,-11.177 -2.875,-3.473 -7.812,-4.1 -11.027,-1.401 C -2.6,-8.477 -2.875,-3.473 0,0"
         style="fill:#e94f1d;fill-opacity:1;fill-rule:nonzero;stroke:none"
         id="path862" />
    </g>
    <g
       id="g864"
       transform="matrix(0.35277777,0,0,-0.35277777,283.80831,297.85594)"
       >
      <path
         d="m 0,0 c 2.875,3.473 7.812,4.1 11.027,1.401 3.214,-2.7 3.489,-7.703 0.614,-11.177 -2.875,-3.473 -7.812,-4.1 -11.027,-1.401 C -2.6,-8.477 -2.875,-3.473 0,0"
         style="fill:#e94f1d;fill-opacity:1;fill-rule:nonzero;stroke:none"
         id="path866" />
    </g>
    <g
       id="g868"
       transform="matrix(0.35277777,0,0,-0.35277777,281.21984,305.55312)"
       >
      <path
         d="m 0,0 c 2.875,3.473 7.812,4.1 11.026,1.401 3.215,-2.7 3.49,-7.704 0.615,-11.177 -2.876,-3.473 -7.812,-4.1 -11.027,-1.401 C -2.6,-8.477 -2.875,-3.473 0,0"
         style="fill:#e94f1d;fill-opacity:1;fill-rule:nonzero;stroke:none"
         id="path870" />
    </g>
    <g
       id="g872"
       transform="matrix(0.35277777,0,0,-0.35277777,272.1609,295.13898)"
       >
      <path
         d="m 0,0 c 2.875,3.473 7.812,4.1 11.027,1.401 3.214,-2.7 3.489,-7.703 0.614,-11.177 -2.875,-3.473 -7.812,-4.1 -11.027,-1.401 C -2.6,-8.477 -2.875,-3.473 0,0"
         style="fill:#e94f1d;fill-opacity:1;fill-rule:nonzero;stroke:none"
         id="path874" />
    </g>
    <g
       id="g876"
       transform="matrix(0.35277777,0,0,-0.35277777,252.61433,285.09155)"
       >
      <path
         d="m 0,0 c 2.875,3.473 7.812,4.1 11.027,1.401 3.214,-2.7 3.489,-7.704 0.614,-11.177 -2.875,-3.473 -7.812,-4.1 -11.027,-1.401 C -2.6,-8.477 -2.875,-3.473 0,0"
         style="fill:#e94f1d;fill-opacity:1;fill-rule:nonzero;stroke:none"
         id="path878" />
    </g>
    <g
       id="g880"
       transform="matrix(0.35277777,0,0,-0.35277777,244.01939,286.45236)"
       >
      <path
         d="m 0,0 c 2.875,3.473 7.812,4.1 11.027,1.401 3.214,-2.7 3.489,-7.704 0.614,-11.177 -2.875,-3.473 -7.812,-4.1 -11.027,-1.401 C -2.6,-8.477 -2.875,-3.473 0,0"
         style="fill:#e94f1d;fill-opacity:1;fill-rule:nonzero;stroke:none"
         id="path882" />
    </g>
    <g
       id="g884"
       transform="matrix(0.35277777,0,0,-0.35277777,235.60843,292.14192)"
       >
      <path
         d="m 0,0 c 2.875,3.473 7.812,4.1 11.027,1.401 3.214,-2.7 3.489,-7.704 0.614,-11.177 -2.875,-3.473 -7.812,-4.1 -11.027,-1.401 C -2.6,-8.477 -2.875,-3.473 0,0"
         style="fill:#e94f1d;fill-opacity:1;fill-rule:nonzero;stroke:none"
         id="path886" />
    </g>
    <g
       id="g888"
       transform="matrix(0.35277777,0,0,-0.35277777,247.87634,293.09527)"
       >
      <path
         d="m 0,0 c 2.875,3.473 7.812,4.1 11.027,1.401 3.214,-2.7 3.489,-7.703 0.614,-11.177 -2.875,-3.473 -7.812,-4.1 -11.027,-1.401 C -2.6,-8.477 -2.875,-3.473 0,0"
         style="fill:#e94f1d;fill-opacity:1;fill-rule:nonzero;stroke:none"
         id="path890" />
    </g>
    <g
       id="g892"
       transform="matrix(0.35277777,0,0,-0.35277777,258.13872,296.22998)"
       >
      <path
         d="m 0,0 c 2.875,3.473 7.812,4.1 11.027,1.401 3.214,-2.7 3.489,-7.704 0.614,-11.177 -2.875,-3.473 -7.812,-4.1 -11.027,-1.401 C -2.6,-8.477 -2.875,-3.473 0,0"
         style="fill:#e94f1d;fill-opacity:1;fill-rule:nonzero;stroke:none"
         id="path894" />
    </g>
    <g
       id="g896"
       transform="matrix(0.35277777,0,0,-0.35277777,249.91815,300.09741)"
       >
      <path
         d="m 0,0 c 2.875,3.473 7.812,4.1 11.026,1.401 3.215,-2.7 3.49,-7.703 0.615,-11.177 -2.876,-3.473 -7.812,-4.1 -11.027,-1.401 C -2.6,-8.477 -2.875,-3.473 0,0"
         style="fill:#e94f1d;fill-opacity:1;fill-rule:nonzero;stroke:none"
         id="path898" />
    </g>
    <g
       id="g900"
       transform="matrix(0.35277777,0,0,-0.35277777,243.31076,298.61017)"
       >
      <path
         d="m 0,0 c 2.875,3.473 7.812,4.1 11.027,1.401 3.214,-2.7 3.489,-7.704 0.614,-11.177 -2.875,-3.473 -7.812,-4.1 -11.027,-1.401 C -2.6,-8.477 -2.875,-3.473 0,0"
         style="fill:#e94f1d;fill-opacity:1;fill-rule:nonzero;stroke:none"
         id="path902" />
    </g>
    <g
       id="g904"
       transform="matrix(0.35277777,0,0,-0.35277777,273.70405,302.98374)"
       >
      <path
         d="m 0,0 c 2.875,3.473 7.812,4.1 11.027,1.401 3.214,-2.7 3.489,-7.703 0.614,-11.177 -2.875,-3.473 -7.812,-4.1 -11.027,-1.4 C -2.6,-8.477 -2.875,-3.473 0,0"
         style="fill:#e94f1d;fill-opacity:1;fill-rule:nonzero;stroke:none"
         id="path906" />
    </g>
    <g
       id="g908"
       transform="matrix(0.35277777,0,0,-0.35277777,264.35791,305.61941)"
       >
      <path
         d="m 0,0 c 2.875,3.473 7.812,4.1 11.027,1.401 3.214,-2.7 3.489,-7.704 0.614,-11.177 -2.875,-3.473 -7.812,-4.1 -11.027,-1.401 C -2.6,-8.477 -2.875,-3.473 0,0"
         style="fill:#e94f1d;fill-opacity:1;fill-rule:nonzero;stroke:none"
         id="path910" />
    </g>
    <g
       id="g912"
       transform="matrix(0.35277777,0,0,-0.35277777,260.08087,316.83792)"
       >
      <path
         d="m 0,0 c 2.875,3.473 7.812,4.1 11.027,1.401 3.214,-2.7 3.489,-7.703 0.614,-11.177 -2.875,-3.473 -7.812,-4.1 -11.027,-1.401 C -2.6,-8.477 -2.875,-3.473 0,0"
         style="fill:#e94f1d;fill-opacity:1;fill-rule:nonzero;stroke:none"
         id="path914" />
    </g>
    <g
       id="g916"
       transform="matrix(0.35277777,0,0,-0.35277777,255.27702,307.49827)"
       >
      <path
         d="m 0,0 c 2.875,3.473 7.812,4.1 11.026,1.401 3.215,-2.7 3.49,-7.703 0.615,-11.177 -2.876,-3.473 -7.812,-4.1 -11.027,-1.4 C -2.6,-8.477 -2.875,-3.473 0,0"
         style="fill:#e94f1d;fill-opacity:1;fill-rule:nonzero;stroke:none"
         id="path918" />
    </g>
    <g
       id="g920"
       transform="matrix(0.35277777,0,0,-0.35277777,273.22318,314.38096)"
       >
      <path
         d="m 0,0 c 2.875,3.473 7.812,4.1 11.027,1.401 3.214,-2.7 3.489,-7.704 0.614,-11.177 -2.875,-3.473 -7.812,-4.1 -11.027,-1.401 C -2.6,-8.477 -2.875,-3.473 0,0"
         style="fill:#e94f1d;fill-opacity:1;fill-rule:nonzero;stroke:none"
         id="path922" />
    </g>
    <g
       id="g924"
       transform="matrix(0.35277777,0,0,-0.35277777,270.81907,323.19176)"
       >
      <path
         d="m 0,0 c 2.875,3.473 7.812,4.1 11.026,1.401 3.215,-2.7 3.49,-7.703 0.615,-11.177 -2.875,-3.473 -7.812,-4.1 -11.027,-1.401 C -2.6,-8.477 -2.875,-3.473 0,0"
         style="fill:#e94f1d;fill-opacity:1;fill-rule:nonzero;stroke:none"
         id="path926" />
    </g>
    <g
       id="g928"
       transform="matrix(0.35277777,0,0,-0.35277777,262.74924,323.63221)"
       >
      <path
         d="m 0,0 c 2.875,3.473 7.812,4.1 11.026,1.401 3.215,-2.7 3.49,-7.703 0.615,-11.177 -2.876,-3.473 -7.812,-4.1 -11.027,-1.4 C -2.6,-8.477 -2.875,-3.473 0,0"
         style="fill:#e94f1d;fill-opacity:1;fill-rule:nonzero;stroke:none"
         id="path930" />
    </g>
    <g
       id="g932"
       transform="matrix(0.35277777,0,0,-0.35277777,159.85575,276.32076)"
       >
      <path
         d="M 0,0 C 3.37,2.976 8.283,2.763 10.975,-0.476 13.667,-3.715 13.118,-8.754 9.748,-11.73 6.379,-14.706 1.465,-14.493 -1.227,-11.254 -3.919,-8.015 -3.37,-2.976 0,0"
         style="fill:#02a19a;fill-opacity:1;fill-rule:nonzero;stroke:none"
         id="path934" />
    </g>
    <g
       id="g936"
       transform="matrix(0.35277777,0,0,-0.35277777,157.72892,289.50632)"
       >
      <path
         d="M 0,0 C 3.37,2.976 8.283,2.763 10.975,-0.476 13.667,-3.715 13.118,-8.754 9.748,-11.73 6.379,-14.706 1.465,-14.493 -1.227,-11.254 -3.919,-8.015 -3.37,-2.976 0,0"
         style="fill:#02a19a;fill-opacity:1;fill-rule:nonzero;stroke:none"
         id="path938" />
    </g>
    <g
       id="g940"
       transform="matrix(0.35277777,0,0,-0.35277777,146.83451,282.92941)"
       >
      <path
         d="M 0,0 C 3.37,2.976 8.283,2.763 10.975,-0.476 13.667,-3.715 13.118,-8.754 9.748,-11.73 6.379,-14.706 1.465,-14.493 -1.227,-11.254 -3.919,-8.015 -3.37,-2.976 0,0"
         style="fill:#02a19a;fill-opacity:1;fill-rule:nonzero;stroke:none"
         id="path942" />
    </g>
    <g
       id="g944"
       transform="matrix(0.35277777,0,0,-0.35277777,146.50604,267.02002)"
       >
      <path
         d="M 0,0 C 3.37,2.976 8.283,2.763 10.975,-0.476 13.667,-3.715 13.118,-8.754 9.748,-11.73 6.379,-14.706 1.465,-14.493 -1.227,-11.254 -3.919,-8.015 -3.37,-2.976 0,0"
         style="fill:#02a19a;fill-opacity:1;fill-rule:nonzero;stroke:none"
         id="path946" />
    </g>
    <g
       id="g948"
       transform="matrix(0.35277777,0,0,-0.35277777,222.67362,374.18593)"
       >
      <path
         d="M 0,0 C 3.37,2.976 8.283,2.763 10.975,-0.476 13.667,-3.715 13.118,-8.754 9.748,-11.73 6.379,-14.706 1.465,-14.493 -1.227,-11.254 -3.919,-8.015 -3.37,-2.976 0,0"
         style="fill:#02a19a;fill-opacity:1;fill-rule:nonzero;stroke:none"
         id="path950" />
    </g>
    <g
       id="g952"
       transform="matrix(0.35277777,0,0,-0.35277777,229.55158,382.46213)"
       >
      <path
         d="M 0,0 C 3.37,2.976 8.283,2.763 10.975,-0.476 13.667,-3.715 13.118,-8.754 9.748,-11.73 6.379,-14.706 1.465,-14.493 -1.227,-11.254 -3.919,-8.015 -3.37,-2.976 0,0"
         style="fill:#02a19a;fill-opacity:1;fill-rule:nonzero;stroke:none"
         id="path954" />
    </g>
    <g
       id="g956"
       transform="matrix(0.35277777,0,0,-0.35277777,236.64877,374.67139)"
       >
      <path
         d="M 0,0 C 3.37,2.976 8.283,2.763 10.975,-0.476 13.667,-3.715 13.118,-8.754 9.748,-11.73 6.379,-14.706 1.465,-14.493 -1.227,-11.254 -3.919,-8.015 -3.37,-2.976 0,0"
         style="fill:#02a19a;fill-opacity:1;fill-rule:nonzero;stroke:none"
         id="path958" />
    </g>
    <g
       id="g960"
       transform="matrix(0.35277777,0,0,-0.35277777,264.57466,335.83352)"
       >
      <path
         d="m 0,0 c -4.343,6.226 -10.913,19.531 -17.928,28.744 -7.015,9.213 -10.116,14.487 -15.875,22.96 -5.76,8.474 -18.762,17.946 -22.746,27.37 -3.985,9.425 -13.564,20.688 -18.193,22.146 -4.63,1.459 -8.576,0.035 -16.063,1.329 -7.487,1.293 -19.037,2.07 -19.037,2.07"
         style="fill:none;stroke:#be1823;stroke-width:0.25;stroke-linecap:butt;stroke-linejoin:miter;stroke-miterlimit:10;stroke-dasharray:none;stroke-opacity:1"
         id="path962" />
    </g>
    <g
       id="g964"
       transform="matrix(0.35277777,0,0,-0.35277777,219.83016,294.02607)"
       >
      <path
         d="m 0,0 c -0.109,22.896 2.407,23.269 -5.791,34.519 -8.198,11.251 -5.973,22.461 -18.384,31.223 -12.411,8.762 -26.784,38.317 -34.738,40.986 -7.953,2.668 -16.516,19.144 -16.516,19.144"
         style="fill:none;stroke:#e94f1d;stroke-width:0.25;stroke-linecap:butt;stroke-linejoin:miter;stroke-miterlimit:10;stroke-dasharray:none;stroke-opacity:1"
         id="path966" />
    </g>
  </g>
</svg>
