<?xml version="1.0" encoding="UTF-8" standalone="no"?>
<!-- Created with Inkscape (http://www.inkscape.org/) -->

<svg
   width="144.00974mm"
   height="154.33434mm"
   viewBox="0 0 144.00974 154.33434"
   version="1.1"
   id="svg11145"
   inkscape:version="1.2.2 (b0a8486541, 2022-12-01)"
   sodipodi:docname="right_grass.svg"
   xmlns:inkscape="http://www.inkscape.org/namespaces/inkscape"
   xmlns:sodipodi="http://sodipodi.sourceforge.net/DTD/sodipodi-0.dtd"
   xmlns="http://www.w3.org/2000/svg"
   xmlns:svg="http://www.w3.org/2000/svg">
  <sodipodi:namedview
     id="namedview11147"
     pagecolor="#ffffff"
     bordercolor="#666666"
     borderopacity="1.0"
     inkscape:showpageshadow="2"
     inkscape:pageopacity="0.0"
     inkscape:pagecheckerboard="0"
     inkscape:deskcolor="#d1d1d1"
     inkscape:document-units="mm"
     showgrid="false"
     inkscape:zoom="0.69931958"
     inkscape:cx="-131.55645"
     inkscape:cy="405.39405"
     inkscape:window-width="1920"
     inkscape:window-height="1011"
     inkscape:window-x="0"
     inkscape:window-y="0"
     inkscape:window-maximized="1"
     inkscape:current-layer="layer1" />
  <g
     inkscape:label="Calque 1"
     inkscape:groupmode="layer"
     id="layer1"
     transform="translate(-139.8677,-41.843149)">
    <g
       id="g968"
       transform="matrix(0.35277777,0,0,-0.35277777,265.38844,186.44475)"
       >
      <path
         d="M 0,0 C 6.102,11.315 13.094,21.821 20.9,31.193 16.038,38.646 9.381,48.831 7.969,50.9 5.691,54.24 -1.144,83.183 -4.94,70.938 -8.738,58.693 -42.151,16.392 -42.151,16.392 l 37.969,84.602 41.009,60.113 c 0,0 -9.113,0 -14.43,-7.792 C 17.082,145.522 -4.182,109.9 -21.647,87.636 -39.114,65.372 -55.062,9.712 -55.062,9.712 c 0,0 9.113,33.396 9.873,50.094 0.759,16.698 59.993,142.489 59.993,142.489 l 37.211,47.868 c 0,0 -52.399,-51.207 -59.234,-59 -6.835,-7.792 -33.414,-50.093 -49.362,-63.452 -9.159,-7.673 -15.057,-32.229 -18.422,-51.751 l 15.385,111.864 59.234,163.64 31.136,55.66 c 0,0 -28.098,-22.264 -44.046,-45.641 -15.948,-23.377 -40.249,-86.83 -46.324,-100.188 -6.075,-13.358 -28.858,-122.452 -34.173,-136.923 -5.316,-14.472 -6.835,-83.49 -6.835,-83.49 0,0 -11.391,175.885 -11.391,202.602 0,26.716 -18.985,83.49 -26.579,103.527 -7.594,20.038 -41.768,60.113 -41.768,60.113 0,0 36.452,-86.83 39.489,-111.32 3.038,-24.49 19.745,-149.168 15.948,-175.885 -3.678,-25.882 -3.794,-116.536 -3.797,-122.176 v 58.724 c 0,0 -31.895,104.64 -33.414,121.338 -1.519,16.698 -71.384,96.848 -88.85,113.546 -17.467,16.698 -37.971,18.925 -37.971,18.925 0,0 43.286,-50.094 59.993,-70.111 16.707,-20.018 43.287,-99.095 53.159,-140.284 9.871,-41.188 -2.278,-14.471 -4.557,-8.905 -2.278,5.566 -27.338,53.433 -41.767,67.905 -14.429,14.471 -32.655,48.981 -50.88,69.018 -18.226,20.038 -48.603,10.019 -61.512,7.792 -12.91,-2.226 -26.58,-5.566 -18.227,-7.792 8.354,-2.226 54.678,-35.622 80.498,-53.433 25.82,-17.812 45.564,-93.509 45.564,-93.509 0,0 -32.654,47.867 -53.158,61.226 -20.504,13.358 -25.061,11.132 -37.97,11.132 -12.91,0 -28.098,-6.679 -28.098,-6.679 0,0 30.375,-4.453 50.88,-14.472 20.504,-10.019 28.857,-28.943 50.12,-61.226 21.264,-32.283 22.783,-73.471 22.783,-73.471 0,0 5.316,-23.377 30.377,-24.49 25.06,-1.114 159.474,12.245 179.978,24.49 2,1.194 6.07,2.013 11.776,2.533"
         style="fill:#056634;fill-opacity:1;fill-rule:nonzero;stroke:none"
         id="path970" />
    </g>
    <g
       id="g972"
       transform="matrix(0.35277777,0,0,-0.35277777,265.38844,186.44475)"
       >
      <path
         d="M 0,0 C 6.102,11.315 13.094,21.821 20.9,31.193 16.038,38.646 9.381,48.831 7.969,50.9 5.691,54.24 -1.144,83.183 -4.94,70.938 -8.738,58.693 -42.151,16.392 -42.151,16.392 l 37.969,84.602 41.009,60.113 c 0,0 -9.113,0 -14.43,-7.792 C 17.082,145.522 -4.182,109.9 -21.647,87.636 -39.114,65.372 -55.062,9.712 -55.062,9.712 c 0,0 9.113,33.396 9.873,50.094 0.759,16.698 59.993,142.489 59.993,142.489 l 37.211,47.868 c 0,0 -52.399,-51.207 -59.234,-59 -6.835,-7.792 -33.414,-50.093 -49.362,-63.452 -9.159,-7.673 -15.057,-32.229 -18.422,-51.751 l 15.385,111.864 59.234,163.64 31.136,55.66 c 0,0 -28.098,-22.264 -44.046,-45.641 -15.948,-23.377 -40.249,-86.83 -46.324,-100.188 -6.075,-13.358 -28.858,-122.452 -34.173,-136.923 -5.316,-14.472 -6.835,-83.49 -6.835,-83.49 0,0 -11.391,175.885 -11.391,202.602 0,26.716 -18.985,83.49 -26.579,103.527 -7.594,20.038 -41.768,60.113 -41.768,60.113 0,0 36.452,-86.83 39.489,-111.32 3.038,-24.49 19.745,-149.168 15.948,-175.885 -3.678,-25.882 -3.794,-116.536 -3.797,-122.176 v 58.724 c 0,0 -31.895,104.64 -33.414,121.338 -1.519,16.698 -71.384,96.848 -88.85,113.546 -17.467,16.698 -37.971,18.925 -37.971,18.925 0,0 43.286,-50.094 59.993,-70.111 16.707,-20.018 43.287,-99.095 53.159,-140.284 9.871,-41.188 -2.278,-14.471 -4.557,-8.905 -2.278,5.566 -27.338,53.433 -41.767,67.905 -14.429,14.471 -32.655,48.981 -50.88,69.018 -18.226,20.038 -48.603,10.019 -61.512,7.792 -12.91,-2.226 -26.58,-5.566 -18.227,-7.792 8.354,-2.226 54.678,-35.622 80.498,-53.433 25.82,-17.812 45.564,-93.509 45.564,-93.509 0,0 -32.654,47.867 -53.158,61.226 -20.504,13.358 -25.061,11.132 -37.97,11.132 -12.91,0 -28.098,-6.679 -28.098,-6.679 0,0 30.375,-4.453 50.88,-14.472 20.504,-10.019 28.857,-28.943 50.12,-61.226 21.264,-32.283 22.783,-73.471 22.783,-73.471 0,0 5.316,-23.377 30.377,-24.49 25.06,-1.114 159.474,12.245 179.978,24.49 2,1.194 6.07,2.013 11.776,2.533 z"
         style="fill:none;stroke:#018e39;stroke-width:1;stroke-linecap:butt;stroke-linejoin:miter;stroke-miterlimit:10;stroke-dasharray:none;stroke-opacity:1"
         id="path974" />
    </g>
  </g>
</svg>
