<?xml version="1.0" encoding="UTF-8" standalone="no"?>
<!-- Created with Inkscape (http://www.inkscape.org/) -->

<svg
   width="154.45058mm"
   height="152.8297mm"
   viewBox="0 0 154.45058 152.8297"
   version="1.1"
   id="svg12038"
   inkscape:version="1.2.2 (b0a8486541, 2022-12-01)"
   sodipodi:docname="right_butterfly_1.svg"
   xmlns:inkscape="http://www.inkscape.org/namespaces/inkscape"
   xmlns:sodipodi="http://sodipodi.sourceforge.net/DTD/sodipodi-0.dtd"
   xmlns="http://www.w3.org/2000/svg"
   xmlns:svg="http://www.w3.org/2000/svg">
  <sodipodi:namedview
     id="namedview12040"
     pagecolor="#ffffff"
     bordercolor="#666666"
     borderopacity="1.0"
     inkscape:showpageshadow="2"
     inkscape:pageopacity="0.0"
     inkscape:pagecheckerboard="0"
     inkscape:deskcolor="#d1d1d1"
     inkscape:document-units="mm"
     showgrid="false"
     inkscape:zoom="0.69931958"
     inkscape:cx="-54.338533"
     inkscape:cy="745.72486"
     inkscape:window-width="1920"
     inkscape:window-height="1011"
     inkscape:window-x="0"
     inkscape:window-y="0"
     inkscape:window-maximized="1"
     inkscape:current-layer="layer1" />
  <g
     inkscape:label="Calque 1"
     inkscape:groupmode="layer"
     id="layer1"
     transform="translate(-119.51354,48.417405)">
    <g
       id="g472"
       transform="matrix(0.35277777,0,0,-0.35277777,198.38845,27.963045)"
       >
      <path
         d="m 0,0 c -21.086,-0.586 -21.349,4.838 -35.85,5.03 -14.502,0.192 -35.503,10.38 -45.363,8.1 -9.86,-2.28 -58.962,-4.506 -66.273,-8.685 -7.311,-4.179 -14.159,0.467 -35.484,-12.143 -21.325,-12.611 -22.502,-9.612 -30.85,-24.766 -8.348,-15.153 -12.579,-21.93 -7.333,-29.551 5.246,-7.622 9.46,-21.144 14.787,-23.066 5.327,-1.922 37.209,-19.153 41.052,-20.576 3.843,-1.423 13.509,-3.243 17.614,-10.09 4.105,-6.847 13.492,-23.541 20.38,-25.337 6.888,-1.796 23.135,-7.912 31.169,-5.408 8.032,2.504 21.817,9.061 21.817,9.061 l -1.916,-15.625 c 0,0 -1.082,-18.899 2.951,-21.297 4.032,-2.397 21.827,-23.611 25.824,-23.784 3.996,-0.173 18.413,-11.139 24.998,-10.361 6.585,0.779 37.293,-8.379 42.584,-8.076 5.291,0.302 21.434,5.936 27.185,9.989 5.75,4.053 10.102,19.379 10.102,19.379 l 9.357,38.502 0.051,60.896 z"
         style="fill:#cbbba0;fill-opacity:1;fill-rule:nonzero;stroke:none"
         id="path474" />
    </g>
    <g
       id="g476"
       transform="matrix(0.35277777,0,0,-0.35277777,198.38845,27.963045)"
       >
      <path
         d="m 0,0 c -21.086,-0.586 -21.349,4.838 -35.85,5.03 -14.502,0.192 -35.503,10.38 -45.363,8.1 -9.86,-2.28 -58.962,-4.506 -66.273,-8.685 -7.311,-4.179 -14.159,0.467 -35.484,-12.143 -21.325,-12.611 -22.502,-9.612 -30.85,-24.766 -8.348,-15.153 -12.579,-21.93 -7.333,-29.551 5.246,-7.622 9.46,-21.144 14.787,-23.066 5.327,-1.922 37.209,-19.153 41.052,-20.576 3.843,-1.423 13.509,-3.243 17.614,-10.09 4.105,-6.847 13.492,-23.541 20.38,-25.337 6.888,-1.796 23.135,-7.912 31.169,-5.408 8.032,2.504 21.817,9.061 21.817,9.061 l -1.916,-15.625 c 0,0 -1.082,-18.899 2.951,-21.297 4.032,-2.397 21.827,-23.611 25.824,-23.784 3.996,-0.173 18.413,-11.139 24.998,-10.361 6.585,0.779 37.293,-8.379 42.584,-8.076 5.291,0.302 21.434,5.936 27.185,9.989 5.75,4.053 10.102,19.379 10.102,19.379 l 9.357,38.502 0.051,60.896 z"
         style="fill:none;stroke:#be1823;stroke-width:0.25;stroke-linecap:butt;stroke-linejoin:miter;stroke-miterlimit:10;stroke-dasharray:none;stroke-opacity:1"
         id="path478" />
    </g>
    <g
       id="g480"
       transform="matrix(0.35277777,0,0,-0.35277777,203.54712,25.014705)"
       >
      <path
         d="m 0,0 c 0,0 -2.492,25.047 0.223,39.622 2.715,14.576 5.282,41.682 5.282,41.682 0,0 5.27,26.458 7.962,30.902 2.692,4.445 5.068,23.82 11.125,30.373 6.057,6.552 8.118,13.278 13.453,21.505 5.336,8.228 6.974,8.979 13.68,18.307 6.707,9.328 13.978,10.656 21.938,17.61 7.961,6.954 14.7,8.983 17.934,7.634 3.234,-1.348 14.642,-1.828 20.657,-6.831 6.015,-5.003 16.917,-11.352 17.392,-22.861 0.473,-11.509 1.142,-31.257 6.88,-42.428 5.738,-11.171 18.722,-19.907 20.779,-34.033 2.056,-14.127 4.669,-30.624 1.62,-35.326 -3.049,-4.701 4.411,-4.347 -5.836,-14.827 l -10.247,-10.48 c 0,0 14.542,2.658 22.075,-1.438 7.532,-4.095 25.445,-21.834 27.759,-30.682 2.315,-8.849 5.266,-30.145 5.491,-33.345 0.226,-3.2 3.439,-29.921 -1.098,-39.198 -4.537,-9.277 1.548,-15.098 -8.736,-23.353 -10.283,-8.255 -12.15,-10.881 -18.167,-14.584 -6.017,-3.703 -16.256,-4.034 -25.809,-3.814 -9.553,0.22 -85.418,17.08 -85.418,17.08 z"
         style="fill:#cbbba0;fill-opacity:1;fill-rule:nonzero;stroke:none"
         id="path482" />
    </g>
    <g
       id="g484"
       transform="matrix(0.35277777,0,0,-0.35277777,203.54712,25.014705)"
       >
      <path
         d="m 0,0 c 0,0 -2.492,25.047 0.223,39.622 2.715,14.576 5.282,41.682 5.282,41.682 0,0 5.27,26.458 7.962,30.902 2.692,4.445 5.068,23.82 11.125,30.373 6.057,6.552 8.118,13.278 13.453,21.505 5.336,8.228 6.974,8.979 13.68,18.307 6.707,9.328 13.978,10.656 21.938,17.61 7.961,6.954 14.7,8.983 17.934,7.634 3.234,-1.348 14.642,-1.828 20.657,-6.831 6.015,-5.003 16.917,-11.352 17.392,-22.861 0.473,-11.509 1.142,-31.257 6.88,-42.428 5.738,-11.171 18.722,-19.907 20.779,-34.033 2.056,-14.127 4.669,-30.624 1.62,-35.326 -3.049,-4.701 4.411,-4.347 -5.836,-14.827 l -10.247,-10.48 c 0,0 14.542,2.658 22.075,-1.438 7.532,-4.095 25.445,-21.834 27.759,-30.682 2.315,-8.849 5.266,-30.145 5.491,-33.345 0.226,-3.2 3.439,-29.921 -1.098,-39.198 -4.537,-9.277 1.548,-15.098 -8.736,-23.353 -10.283,-8.255 -12.15,-10.881 -18.167,-14.584 -6.017,-3.703 -16.256,-4.034 -25.809,-3.814 -9.553,0.22 -85.418,17.08 -85.418,17.08 z"
         style="fill:none;stroke:#be1823;stroke-width:0.25;stroke-linecap:butt;stroke-linejoin:miter;stroke-miterlimit:10;stroke-dasharray:none;stroke-opacity:1"
         id="path486" />
    </g>
    <g
       id="g488"
       transform="matrix(0.35277777,0,0,-0.35277777,198.483,15.496091)"
       >
      <path
         d="m 0,0 c -0.56,13.074 -0.145,21.107 -0.596,27.506 -0.452,6.4 0.617,10.075 2.335,16.525 1.718,6.451 3.472,10.677 3.017,12.001 -0.456,1.325 5.186,12.052 -2.661,3.499 -7.848,-8.554 -5.489,-9.478 -6.138,-12.253 -0.65,-2.775 -6.07,-21.777 -5.349,-23.451 0.722,-1.675 1.58,-22.398 1.58,-22.398 0,0 5.494,-5.169 -0.6,-9.497 -6.093,-4.328 -14.023,1.14 -17.256,2.488 -3.235,1.348 -25.842,3.486 -27.326,3.985 -1.484,0.499 -15.299,1.241 -16.86,1.116 -1.561,-0.126 -14.159,0.467 -10.279,-3.181 3.879,-3.647 12.63,-7.892 16.17,-6.741 3.541,1.152 15.94,0.095 15.94,0.095 l 25.697,-3.297 16.162,-16.89 c 0,0 42.466,-59.448 49.237,-64.719 6.771,-5.271 55.434,-72.14 60.991,-72.187 5.557,-0.047 7.721,-1.691 5.425,4.355 -2.295,6.046 -48.979,73.941 -51.45,76.465 -2.473,2.523 -40.978,64.023 -43.603,65.297 C 11.811,-20.009 0,0 0,0"
         style="fill:#1e1f1d;fill-opacity:1;fill-rule:nonzero;stroke:none"
         id="path490" />
    </g>
    <g
       id="g492"
       transform="matrix(0.35277777,0,0,-0.35277777,148.03839,57.149797)"
       >
      <path
         d="m 0,0 c 2.425,-3.188 1.859,-7.805 -1.265,-10.312 -3.123,-2.508 -7.622,-1.956 -10.047,1.232 -2.425,3.187 -1.859,7.804 1.265,10.312 C -6.923,3.74 -2.425,3.188 0,0"
         style="fill:#02a19a;fill-opacity:1;fill-rule:nonzero;stroke:none"
         id="path494" />
    </g>
    <g
       id="g496"
       transform="matrix(0.35277777,0,0,-0.35277777,150.81754,44.562368)"
       >
      <path
         d="m 0,0 c 2.425,-3.188 1.859,-7.805 -1.265,-10.313 -3.124,-2.507 -7.622,-1.955 -10.047,1.233 -2.425,3.187 -1.859,7.804 1.265,10.312 C -6.924,3.74 -2.425,3.188 0,0"
         style="fill:#02a19a;fill-opacity:1;fill-rule:nonzero;stroke:none"
         id="path498" />
    </g>
    <g
       id="g500"
       transform="matrix(0.35277777,0,0,-0.35277777,151.45402,31.061598)"
       >
      <path
         d="m 0,0 c 2.425,-3.188 1.859,-7.805 -1.265,-10.313 -3.123,-2.507 -7.622,-1.955 -10.047,1.232 -2.425,3.188 -1.859,7.805 1.265,10.313 C -6.924,3.74 -2.425,3.188 0,0"
         style="fill:#02a19a;fill-opacity:1;fill-rule:nonzero;stroke:none"
         id="path502" />
    </g>
    <g
       id="g504"
       transform="matrix(0.35277777,0,0,-0.35277777,151.45402,31.061598)"
       >
      <path
         d="m 0,0 c 2.425,-3.188 1.859,-7.805 -1.265,-10.313 -3.123,-2.507 -7.622,-1.955 -10.047,1.232 -2.425,3.188 -1.859,7.805 1.265,10.313 C -6.924,3.74 -2.425,3.188 0,0"
         style="fill:#02a19a;fill-opacity:1;fill-rule:nonzero;stroke:none"
         id="path506" />
    </g>
    <g
       id="g508"
       transform="matrix(0.35277777,0,0,-0.35277777,236.46535,-40.460108)"
       >
      <path
         d="m 0,0 c 2.425,-3.188 1.859,-7.805 -1.265,-10.312 -3.123,-2.508 -7.622,-1.956 -10.047,1.232 -2.425,3.187 -1.859,7.804 1.265,10.312 C -6.924,3.74 -2.425,3.188 0,0"
         style="fill:#02a19a;fill-opacity:1;fill-rule:nonzero;stroke:none"
         id="path510" />
    </g>
    <g
       id="g512"
       transform="matrix(0.35277777,0,0,-0.35277777,245.0509,-20.725861)"
       >
      <path
         d="m 0,0 c 2.425,-3.188 1.859,-7.805 -1.265,-10.312 -3.123,-2.508 -7.621,-1.956 -10.047,1.232 -2.425,3.187 -1.859,7.804 1.265,10.312 C -6.923,3.74 -2.425,3.188 0,0"
         style="fill:#02a19a;fill-opacity:1;fill-rule:nonzero;stroke:none"
         id="path514" />
    </g>
    <g
       id="g516"
       transform="matrix(0.35277777,0,0,-0.35277777,260.26409,17.2543)"
       >
      <path
         d="m 0,0 c 2.425,-3.188 1.859,-7.805 -1.265,-10.313 -3.123,-2.507 -7.622,-1.955 -10.047,1.232 -2.425,3.188 -1.859,7.805 1.265,10.313 C -6.924,3.739 -2.425,3.188 0,0"
         style="fill:#e94f1d;fill-opacity:1;fill-rule:nonzero;stroke:none"
         id="path518" />
    </g>
    <g
       id="g520"
       transform="matrix(0.35277777,0,0,-0.35277777,264.86018,28.672235)"
       >
      <path
         d="m 0,0 c 2.425,-3.188 1.859,-7.805 -1.265,-10.313 -3.123,-2.507 -7.622,-1.955 -10.047,1.233 -2.425,3.187 -1.859,7.804 1.265,10.312 C -6.924,3.74 -2.425,3.188 0,0"
         style="fill:#e94f1d;fill-opacity:1;fill-rule:nonzero;stroke:none"
         id="path522" />
    </g>
    <g
       id="g524"
       transform="matrix(0.35277777,0,0,-0.35277777,267.28588,20.662204)"
       >
      <path
         d="m 0,0 c 2.425,-3.188 1.859,-7.805 -1.265,-10.312 -3.123,-2.508 -7.622,-1.956 -10.047,1.232 -2.425,3.187 -1.859,7.804 1.265,10.312 C -6.923,3.74 -2.425,3.188 0,0"
         style="fill:#e94f1d;fill-opacity:1;fill-rule:nonzero;stroke:none"
         id="path526" />
    </g>
    <g
       id="g528"
       transform="matrix(0.35277777,0,0,-0.35277777,265.28101,41.453973)"
       >
      <path
         d="m 0,0 c 2.425,-3.188 1.859,-7.805 -1.265,-10.313 -3.123,-2.507 -7.622,-1.955 -10.047,1.232 -2.425,3.188 -1.859,7.805 1.265,10.313 C -6.923,3.74 -2.425,3.188 0,0"
         style="fill:#e94f1d;fill-opacity:1;fill-rule:nonzero;stroke:none"
         id="path530" />
    </g>
    <g
       id="g532"
       transform="matrix(0.35277777,0,0,-0.35277777,269.75342,47.332662)"
       >
      <path
         d="m 0,0 c 2.425,-3.188 1.859,-7.805 -1.265,-10.313 -3.124,-2.507 -7.622,-1.955 -10.047,1.233 -2.425,3.187 -1.859,7.804 1.265,10.312 C -6.924,3.74 -2.425,3.188 0,0"
         style="fill:#e94f1d;fill-opacity:1;fill-rule:nonzero;stroke:none"
         id="path534" />
    </g>
    <g
       id="g536"
       transform="matrix(0.35277777,0,0,-0.35277777,270.54047,36.138706)"
       >
      <path
         d="m 0,0 c 2.425,-3.188 1.859,-7.805 -1.265,-10.313 -3.123,-2.507 -7.622,-1.955 -10.047,1.232 -2.425,3.188 -1.859,7.805 1.265,10.313 C -6.923,3.74 -2.425,3.188 0,0"
         style="fill:#e94f1d;fill-opacity:1;fill-rule:nonzero;stroke:none"
         id="path538" />
    </g>
    <g
       id="g540"
       transform="matrix(0.35277777,0,0,-0.35277777,252.57392,47.281333)"
       >
      <path
         d="m 0,0 c 2.425,-3.188 1.859,-7.805 -1.265,-10.312 -3.124,-2.508 -7.622,-1.956 -10.047,1.232 -2.425,3.187 -1.859,7.804 1.265,10.312 C -6.924,3.74 -2.425,3.188 0,0"
         style="fill:#e94f1d;fill-opacity:1;fill-rule:nonzero;stroke:none"
         id="path542" />
    </g>
    <g
       id="g544"
       transform="matrix(0.35277777,0,0,-0.35277777,247.73063,42.422736)"
       >
      <path
         d="m 0,0 c 2.425,-3.188 1.859,-7.805 -1.265,-10.312 -3.123,-2.508 -7.622,-1.956 -10.047,1.232 -2.425,3.187 -1.859,7.804 1.265,10.312 C -6.923,3.74 -2.425,3.188 0,0"
         style="fill:#e94f1d;fill-opacity:1;fill-rule:nonzero;stroke:none"
         id="path546" />
    </g>
    <g
       id="g548"
       transform="matrix(0.35277777,0,0,-0.35277777,255.85969,34.711014)"
       >
      <path
         d="m 0,0 c 2.225,-3.339 1.378,-7.912 -1.891,-10.215 -3.269,-2.303 -7.723,-1.464 -9.948,1.875 -2.225,3.339 -1.379,7.912 1.891,10.215 C -6.679,4.178 -2.225,3.339 0,0"
         style="fill:#e94f1d;fill-opacity:1;fill-rule:nonzero;stroke:none"
         id="path550" />
    </g>
    <g
       id="g552"
       transform="matrix(0.35277777,0,0,-0.35277777,245.06275,35.426871)"
       >
      <path
         d="m 0,0 c 2.225,-3.339 1.378,-7.912 -1.891,-10.215 -3.269,-2.303 -7.723,-1.464 -9.948,1.875 -2.225,3.339 -1.379,7.912 1.891,10.215 C -6.679,4.178 -2.225,3.339 0,0"
         style="fill:#e94f1d;fill-opacity:1;fill-rule:nonzero;stroke:none"
         id="path554" />
    </g>
    <g
       id="g556"
       transform="matrix(0.35277777,0,0,-0.35277777,237.4472,39.055437)"
       >
      <path
         d="m 0,0 c 2.225,-3.339 1.378,-7.912 -1.891,-10.215 -3.269,-2.303 -7.723,-1.464 -9.948,1.875 -2.225,3.339 -1.379,7.912 1.891,10.215 C -6.679,4.178 -2.225,3.339 0,0"
         style="fill:#e94f1d;fill-opacity:1;fill-rule:nonzero;stroke:none"
         id="path558" />
    </g>
    <g
       id="g560"
       transform="matrix(0.35277777,0,0,-0.35277777,224.60838,39.521844)"
       >
      <path
         d="m 0,0 c 2.225,-3.339 1.378,-7.912 -1.891,-10.215 -3.269,-2.303 -7.723,-1.464 -9.948,1.875 -2.225,3.339 -1.379,7.912 1.891,10.215 C -6.679,4.178 -2.225,3.339 0,0"
         style="fill:#e94f1d;fill-opacity:1;fill-rule:nonzero;stroke:none"
         id="path562" />
    </g>
    <g
       id="g564"
       transform="matrix(0.35277777,0,0,-0.35277777,261.57804,50.263398)"
       >
      <path
         d="m 0,0 c 2.747,-2.9 2.666,-7.55 -0.179,-10.385 -2.845,-2.835 -7.379,-2.782 -10.125,0.118 -2.747,2.9 -2.667,7.55 0.179,10.385 C -7.28,2.953 -2.747,2.9 0,0"
         style="fill:#e94f1d;fill-opacity:1;fill-rule:nonzero;stroke:none"
         id="path566" />
    </g>
    <g
       id="g568"
       transform="matrix(0.35277777,0,0,-0.35277777,241.98011,27.150245)"
       >
      <path
         d="m 0,0 c 2.225,-3.339 1.378,-7.912 -1.891,-10.215 -3.269,-2.303 -7.723,-1.464 -9.948,1.875 -2.225,3.339 -1.379,7.912 1.891,10.215 C -6.679,4.178 -2.225,3.339 0,0"
         style="fill:#e94f1d;fill-opacity:1;fill-rule:nonzero;stroke:none"
         id="path570" />
    </g>
    <g
       id="g572"
       transform="matrix(0.35277777,0,0,-0.35277777,233.53048,32.35975)"
       >
      <path
         d="m 0,0 c 2.225,-3.339 1.378,-7.912 -1.891,-10.215 -3.269,-2.303 -7.723,-1.464 -9.948,1.875 -2.225,3.339 -1.379,7.912 1.891,10.215 C -6.679,4.178 -2.225,3.339 0,0"
         style="fill:#e94f1d;fill-opacity:1;fill-rule:nonzero;stroke:none"
         id="path574" />
    </g>
    <g
       id="g576"
       transform="matrix(0.35277777,0,0,-0.35277777,251.5957,27.697933)"
       >
      <path
         d="m 0,0 c 2.225,-3.339 1.378,-7.912 -1.891,-10.215 -3.27,-2.303 -7.724,-1.464 -9.948,1.875 -2.225,3.339 -1.379,7.912 1.89,10.215 C -6.679,4.178 -2.225,3.339 0,0"
         style="fill:#e94f1d;fill-opacity:1;fill-rule:nonzero;stroke:none"
         id="path578" />
    </g>
    <g
       id="g580"
       transform="matrix(0.35277777,0,0,-0.35277777,250.9189,16.694653)"
       >
      <path
         d="m 0,0 c 2.225,-3.339 1.378,-7.912 -1.891,-10.215 -3.269,-2.303 -7.723,-1.464 -9.948,1.875 -2.225,3.339 -1.379,7.912 1.891,10.215 C -6.679,4.178 -2.225,3.339 0,0"
         style="fill:#e94f1d;fill-opacity:1;fill-rule:nonzero;stroke:none"
         id="path582" />
    </g>
    <g
       id="g584"
       transform="matrix(0.35277777,0,0,-0.35277777,239.11086,45.517161)"
       >
      <path
         d="m 0,0 c 2.911,-2.727 3.1,-7.371 0.423,-10.374 -2.677,-3.002 -7.207,-3.226 -10.118,-0.499 -2.91,2.727 -3.1,7.371 -0.423,10.374 C -7.44,2.503 -2.911,2.727 0,0"
         style="fill:#e94f1d;fill-opacity:1;fill-rule:nonzero;stroke:none"
         id="path586" />
    </g>
    <g
       id="g588"
       transform="matrix(0.35277777,0,0,-0.35277777,239.11086,45.517161)"
       >
      <path
         d="m 0,0 c 2.911,-2.727 3.1,-7.371 0.423,-10.374 -2.677,-3.002 -7.207,-3.226 -10.118,-0.499 -2.91,2.727 -3.1,7.371 -0.423,10.374 C -7.44,2.503 -2.911,2.727 0,0"
         style="fill:#e94f1d;fill-opacity:1;fill-rule:nonzero;stroke:none"
         id="path590" />
    </g>
    <g
       id="g592"
       transform="matrix(0.35277777,0,0,-0.35277777,229.73657,46.313063)"
       >
      <path
         d="m 0,0 c 2.911,-2.727 3.1,-7.371 0.423,-10.374 -2.677,-3.002 -7.207,-3.226 -10.118,-0.499 -2.91,2.727 -3.1,7.372 -0.423,10.374 C -7.44,2.503 -2.911,2.727 0,0"
         style="fill:#e94f1d;fill-opacity:1;fill-rule:nonzero;stroke:none"
         id="path594" />
    </g>
    <g
       id="g596"
       transform="matrix(0.35277777,0,0,-0.35277777,246.63046,52.955657)"
       >
      <path
         d="m 0,0 c 2.911,-2.727 3.1,-7.371 0.423,-10.374 -2.677,-3.002 -7.207,-3.226 -10.118,-0.499 -2.91,2.727 -3.1,7.371 -0.423,10.374 C -7.44,2.503 -2.911,2.727 0,0"
         style="fill:#e94f1d;fill-opacity:1;fill-rule:nonzero;stroke:none"
         id="path598" />
    </g>
    <g
       id="g600"
       transform="matrix(0.35277777,0,0,-0.35277777,216.2237,86.477906)"
       >
      <path
         d="m 0,0 c 2.911,-2.727 3.1,-7.371 0.423,-10.374 -2.677,-3.002 -7.207,-3.226 -10.118,-0.499 -2.91,2.727 -3.1,7.371 -0.423,10.374 C -7.44,2.503 -2.911,2.727 0,0"
         style="fill:#e94f1d;fill-opacity:1;fill-rule:nonzero;stroke:none"
         id="path602" />
    </g>
    <g
       id="g604"
       transform="matrix(0.35277777,0,0,-0.35277777,217.09203,78.498743)"
       >
      <path
         d="m 0,0 c 2.911,-2.727 3.1,-7.371 0.423,-10.374 -2.677,-3.002 -7.207,-3.226 -10.118,-0.499 -2.911,2.727 -3.1,7.371 -0.423,10.374 C -7.441,2.503 -2.911,2.727 0,0"
         style="fill:#e94f1d;fill-opacity:1;fill-rule:nonzero;stroke:none"
         id="path606" />
    </g>
    <g
       id="g608"
       transform="matrix(0.35277777,0,0,-0.35277777,213.68638,72.48614)"
       >
      <path
         d="m 0,0 c 2.911,-2.727 3.1,-7.371 0.423,-10.374 -2.677,-3.002 -7.207,-3.226 -10.118,-0.499 -2.91,2.727 -3.1,7.372 -0.423,10.374 C -7.44,2.503 -2.911,2.727 0,0"
         style="fill:#e94f1d;fill-opacity:1;fill-rule:nonzero;stroke:none"
         id="path610" />
    </g>
    <g
       id="g612"
       transform="matrix(0.35277777,0,0,-0.35277777,211.48067,94.711069)"
       >
      <path
         d="m 0,0 c 2.911,-2.727 3.1,-7.371 0.423,-10.374 -2.677,-3.002 -7.207,-3.226 -10.118,-0.499 -2.911,2.727 -3.1,7.371 -0.423,10.374 C -7.441,2.503 -2.911,2.727 0,0"
         style="fill:#e94f1d;fill-opacity:1;fill-rule:nonzero;stroke:none"
         id="path614" />
    </g>
    <g
       id="g616"
       transform="matrix(0.35277777,0,0,-0.35277777,203.57866,95.411333)"
       >
      <path
         d="m 0,0 c 2.911,-2.727 3.1,-7.371 0.423,-10.374 -2.677,-3.002 -7.207,-3.226 -10.118,-0.499 -2.91,2.727 -3.1,7.371 -0.423,10.374 C -7.44,2.503 -2.911,2.727 0,0"
         style="fill:#e94f1d;fill-opacity:1;fill-rule:nonzero;stroke:none"
         id="path618" />
    </g>
    <g
       id="g620"
       transform="matrix(0.35277777,0,0,-0.35277777,196.83986,92.924497)"
       >
      <path
         d="m 0,0 c 2.911,-2.727 3.1,-7.371 0.423,-10.374 -2.677,-3.002 -7.207,-3.226 -10.118,-0.499 -2.91,2.727 -3.1,7.371 -0.423,10.374 C -7.44,2.503 -2.911,2.727 0,0"
         style="fill:#e94f1d;fill-opacity:1;fill-rule:nonzero;stroke:none"
         id="path622" />
    </g>
    <g
       id="g624"
       transform="matrix(0.35277777,0,0,-0.35277777,206.9135,84.482736)"
       >
      <path
         d="m 0,0 c 2.911,-2.727 3.1,-7.371 0.423,-10.374 -2.677,-3.002 -7.207,-3.226 -10.118,-0.499 -2.91,2.727 -3.1,7.371 -0.423,10.374 C -7.44,2.503 -2.911,2.727 0,0"
         style="fill:#e94f1d;fill-opacity:1;fill-rule:nonzero;stroke:none"
         id="path626" />
    </g>
    <g
       id="g628"
       transform="matrix(0.35277777,0,0,-0.35277777,217.45514,66.180908)"
       >
      <path
         d="m 0,0 c 2.911,-2.727 3.1,-7.371 0.423,-10.374 -2.677,-3.002 -7.207,-3.226 -10.118,-0.499 -2.91,2.727 -3.1,7.371 -0.423,10.374 C -7.44,2.503 -2.911,2.727 0,0"
         style="fill:#e94f1d;fill-opacity:1;fill-rule:nonzero;stroke:none"
         id="path630" />
    </g>
    <g
       id="g632"
       transform="matrix(0.35277777,0,0,-0.35277777,216.88325,58.092878)"
       >
      <path
         d="m 0,0 c 2.911,-2.727 3.1,-7.371 0.423,-10.374 -2.677,-3.002 -7.207,-3.226 -10.118,-0.499 -2.91,2.727 -3.1,7.371 -0.423,10.374 C -7.44,2.503 -2.911,2.727 0,0"
         style="fill:#e94f1d;fill-opacity:1;fill-rule:nonzero;stroke:none"
         id="path634" />
    </g>
    <g
       id="g636"
       transform="matrix(0.35277777,0,0,-0.35277777,212.39691,50.14744)"
       >
      <path
         d="m 0,0 c 2.911,-2.727 3.1,-7.371 0.423,-10.374 -2.677,-3.002 -7.207,-3.226 -10.118,-0.499 -2.911,2.727 -3.1,7.371 -0.423,10.374 C -7.441,2.503 -2.911,2.727 0,0"
         style="fill:#e94f1d;fill-opacity:1;fill-rule:nonzero;stroke:none"
         id="path638" />
    </g>
    <g
       id="g640"
       transform="matrix(0.35277777,0,0,-0.35277777,210.60388,61.671596)"
       >
      <path
         d="m 0,0 c 2.911,-2.727 3.1,-7.371 0.423,-10.374 -2.677,-3.002 -7.207,-3.226 -10.118,-0.499 -2.911,2.727 -3.1,7.371 -0.423,10.374 C -7.441,2.503 -2.911,2.727 0,0"
         style="fill:#e94f1d;fill-opacity:1;fill-rule:nonzero;stroke:none"
         id="path642" />
    </g>
    <g
       id="g644"
       transform="matrix(0.35277777,0,0,-0.35277777,206.99792,71.295444)"
       >
      <path
         d="m 0,0 c 2.911,-2.727 3.1,-7.371 0.423,-10.374 -2.677,-3.002 -7.207,-3.226 -10.118,-0.499 -2.91,2.727 -3.1,7.371 -0.423,10.374 C -7.44,2.503 -2.911,2.727 0,0"
         style="fill:#e94f1d;fill-opacity:1;fill-rule:nonzero;stroke:none"
         id="path646" />
    </g>
    <g
       id="g648"
       transform="matrix(0.35277777,0,0,-0.35277777,204.13884,63.541742)"
       >
      <path
         d="m 0,0 c 2.911,-2.727 3.1,-7.371 0.423,-10.374 -2.677,-3.002 -7.207,-3.226 -10.118,-0.499 -2.91,2.727 -3.1,7.372 -0.423,10.374 C -7.44,2.503 -2.911,2.727 0,0"
         style="fill:#e94f1d;fill-opacity:1;fill-rule:nonzero;stroke:none"
         id="path650" />
    </g>
    <g
       id="g652"
       transform="matrix(0.35277777,0,0,-0.35277777,205.98196,57.341743)"
       >
      <path
         d="m 0,0 c 2.911,-2.727 3.1,-7.371 0.423,-10.374 -2.677,-3.002 -7.207,-3.226 -10.118,-0.499 -2.91,2.727 -3.1,7.371 -0.423,10.374 C -7.44,2.503 -2.911,2.727 0,0"
         style="fill:#e94f1d;fill-opacity:1;fill-rule:nonzero;stroke:none"
         id="path654" />
    </g>
    <g
       id="g656"
       transform="matrix(0.35277777,0,0,-0.35277777,199.72721,85.87829)"
       >
      <path
         d="m 0,0 c 2.911,-2.727 3.1,-7.371 0.423,-10.374 -2.677,-3.002 -7.207,-3.226 -10.118,-0.499 -2.91,2.727 -3.1,7.371 -0.423,10.374 C -7.44,2.503 -2.911,2.727 0,0"
         style="fill:#e94f1d;fill-opacity:1;fill-rule:nonzero;stroke:none"
         id="path658" />
    </g>
    <g
       id="g660"
       transform="matrix(0.35277777,0,0,-0.35277777,198.06376,77.07525)"
       >
      <path
         d="m 0,0 c 2.911,-2.727 3.1,-7.371 0.423,-10.374 -2.677,-3.002 -7.207,-3.226 -10.118,-0.499 -2.91,2.727 -3.1,7.371 -0.423,10.374 C -7.44,2.503 -2.911,2.727 0,0"
         style="fill:#e94f1d;fill-opacity:1;fill-rule:nonzero;stroke:none"
         id="path662" />
    </g>
    <g
       id="g664"
       transform="matrix(0.35277777,0,0,-0.35277777,188.28052,72.976642)"
       >
      <path
         d="m 0,0 c 2.911,-2.727 3.1,-7.371 0.423,-10.374 -2.677,-3.002 -7.207,-3.226 -10.118,-0.499 -2.91,2.727 -3.1,7.371 -0.423,10.374 C -7.44,2.503 -2.911,2.727 0,0"
         style="fill:#e94f1d;fill-opacity:1;fill-rule:nonzero;stroke:none"
         id="path666" />
    </g>
    <g
       id="g668"
       transform="matrix(0.35277777,0,0,-0.35277777,197.06208,68.526809)"
       >
      <path
         d="m 0,0 c 2.911,-2.727 3.1,-7.371 0.423,-10.374 -2.677,-3.002 -7.207,-3.226 -10.118,-0.499 -2.91,2.727 -3.1,7.371 -0.423,10.374 C -7.44,2.503 -2.911,2.727 0,0"
         style="fill:#e94f1d;fill-opacity:1;fill-rule:nonzero;stroke:none"
         id="path670" />
    </g>
    <g
       id="g672"
       transform="matrix(0.35277777,0,0,-0.35277777,189.4939,85.346513)"
       >
      <path
         d="m 0,0 c 2.911,-2.727 3.1,-7.371 0.423,-10.374 -2.677,-3.002 -7.207,-3.226 -10.118,-0.499 -2.91,2.727 -3.1,7.371 -0.423,10.374 C -7.44,2.503 -2.911,2.727 0,0"
         style="fill:#e94f1d;fill-opacity:1;fill-rule:nonzero;stroke:none"
         id="path674" />
    </g>
    <g
       id="g676"
       transform="matrix(0.35277777,0,0,-0.35277777,181.73777,83.025164)"
       >
      <path
         d="m 0,0 c 2.911,-2.727 3.1,-7.371 0.423,-10.374 -2.677,-3.002 -7.208,-3.226 -10.118,-0.499 -2.911,2.727 -3.1,7.371 -0.423,10.374 C -7.441,2.503 -2.911,2.727 0,0"
         style="fill:#e94f1d;fill-opacity:1;fill-rule:nonzero;stroke:none"
         id="path678" />
    </g>
    <g
       id="g680"
       transform="matrix(0.35277777,0,0,-0.35277777,181.95515,75.437126)"
       >
      <path
         d="m 0,0 c 2.911,-2.727 3.1,-7.371 0.423,-10.374 -2.677,-3.002 -7.207,-3.226 -10.118,-0.499 -2.91,2.727 -3.1,7.371 -0.423,10.374 C -7.44,2.503 -2.911,2.727 0,0"
         style="fill:#e94f1d;fill-opacity:1;fill-rule:nonzero;stroke:none"
         id="path682" />
    </g>
    <g
       id="g684"
       transform="matrix(0.35277777,0,0,-0.35277777,232.41997,-20.943066)"
       >
      <path
         d="m 0,0 c 2.425,-3.188 1.859,-7.805 -1.265,-10.313 -3.123,-2.507 -7.622,-1.955 -10.047,1.232 -2.425,3.188 -1.859,7.805 1.265,10.313 C -6.924,3.74 -2.425,3.188 0,0"
         style="fill:#02a19a;fill-opacity:1;fill-rule:nonzero;stroke:none"
         id="path686" />
    </g>
    <g
       id="g688"
       transform="matrix(0.35277777,0,0,-0.35277777,220.70059,-23.034368)"
       >
      <path
         d="m 0,0 c 2.425,-3.188 1.859,-7.805 -1.265,-10.313 -3.124,-2.507 -7.622,-1.955 -10.047,1.232 -2.425,3.188 -1.859,7.805 1.265,10.313 C -6.924,3.74 -2.425,3.188 0,0"
         style="fill:#02a19a;fill-opacity:1;fill-rule:nonzero;stroke:none"
         id="path690" />
    </g>
    <g
       id="g692"
       transform="matrix(0.35277777,0,0,-0.35277777,227.45625,-33.228199)"
       >
      <path
         d="m 0,0 c 2.425,-3.188 1.859,-7.805 -1.265,-10.313 -3.123,-2.507 -7.622,-1.955 -10.047,1.232 -2.425,3.188 -1.859,7.805 1.265,10.313 C -6.924,3.74 -2.425,3.188 0,0"
         style="fill:#02a19a;fill-opacity:1;fill-rule:nonzero;stroke:none"
         id="path694" />
    </g>
    <g
       id="g696"
       transform="matrix(0.35277777,0,0,-0.35277777,241.81698,-33.425543)"
       >
      <path
         d="m 0,0 c 2.425,-3.188 1.859,-7.805 -1.265,-10.313 -3.123,-2.507 -7.622,-1.955 -10.047,1.233 -2.425,3.187 -1.859,7.804 1.265,10.312 C -6.923,3.74 -2.425,3.188 0,0"
         style="fill:#02a19a;fill-opacity:1;fill-rule:nonzero;stroke:none"
         id="path698" />
    </g>
    <g
       id="g700"
       transform="matrix(0.35277777,0,0,-0.35277777,139.45283,37.415549)"
       >
      <path
         d="m 0,0 c 2.425,-3.188 1.859,-7.805 -1.265,-10.312 -3.124,-2.508 -7.622,-1.956 -10.047,1.232 -2.425,3.187 -1.859,7.804 1.265,10.312 C -6.924,3.74 -2.425,3.188 0,0"
         style="fill:#02a19a;fill-opacity:1;fill-rule:nonzero;stroke:none"
         id="path702" />
    </g>
    <g
       id="g704"
       transform="matrix(0.35277777,0,0,-0.35277777,131.47159,43.822346)"
       >
      <path
         d="m 0,0 c 2.425,-3.188 1.859,-7.805 -1.265,-10.312 -3.123,-2.508 -7.622,-1.956 -10.047,1.232 -2.425,3.187 -1.859,7.804 1.265,10.312 C -6.923,3.74 -2.425,3.188 0,0"
         style="fill:#02a19a;fill-opacity:1;fill-rule:nonzero;stroke:none"
         id="path706" />
    </g>
    <g
       id="g708"
       transform="matrix(0.35277777,0,0,-0.35277777,137.95148,50.547631)"
       >
      <path
         d="m 0,0 c 2.425,-3.188 1.859,-7.805 -1.265,-10.313 -3.123,-2.507 -7.622,-1.955 -10.047,1.233 -2.425,3.187 -1.859,7.804 1.265,10.312 C -6.924,3.74 -2.425,3.188 0,0"
         style="fill:#02a19a;fill-opacity:1;fill-rule:nonzero;stroke:none"
         id="path710" />
    </g>
    <g
       id="g712"
       transform="matrix(0.35277777,0,0,-0.35277777,170.82183,77.067489)"
       >
      <path
         d="m 0,0 c 5.94,4.039 18.43,10.12 27.266,16.65 8.835,6.529 13.824,9.406 21.897,14.76 8.074,5.354 17.599,17.509 26.395,21.188 8.795,3.68 19.673,12.604 21.34,16.945 1.667,4.341 0.685,8.061 2.42,15.088 1.736,7.028 3.315,17.879 3.315,17.879"
         style="fill:none;stroke:#be1823;stroke-width:0.25;stroke-linecap:butt;stroke-linejoin:miter;stroke-miterlimit:10;stroke-dasharray:none;stroke-opacity:1"
         id="path714" />
    </g>
    <g
       id="g716"
       transform="matrix(0.35277777,0,0,-0.35277777,211.90027,35.303998)"
       >
      <path
         d="m 0,0 c 20.639,-0.057 20.784,-2.425 31.546,5.202 10.761,7.626 20.694,5.457 29.534,17.061 8.839,11.604 36.566,24.906 39.576,32.363 3.01,7.457 18.508,15.39 18.508,15.39"
         style="fill:none;stroke:#e94f1d;stroke-width:0.25;stroke-linecap:butt;stroke-linejoin:miter;stroke-miterlimit:10;stroke-dasharray:none;stroke-opacity:1"
         id="path718" />
    </g>
  </g>
</svg>
