<?xml version="1.0" encoding="UTF-8" standalone="no"?>
<!-- Created with Inkscape (http://www.inkscape.org/) -->

<svg
   width="95.813103mm"
   height="98.958038mm"
   viewBox="0 0 95.813103 98.958038"
   version="1.1"
   id="svg14187"
   inkscape:version="1.2.2 (b0a8486541, 2022-12-01)"
   sodipodi:docname="right_butterfly_2.svg"
   xmlns:inkscape="http://www.inkscape.org/namespaces/inkscape"
   xmlns:sodipodi="http://sodipodi.sourceforge.net/DTD/sodipodi-0.dtd"
   xmlns="http://www.w3.org/2000/svg"
   xmlns:svg="http://www.w3.org/2000/svg">
  <sodipodi:namedview
     id="namedview14189"
     pagecolor="#ffffff"
     bordercolor="#666666"
     borderopacity="1.0"
     inkscape:showpageshadow="2"
     inkscape:pageopacity="0.0"
     inkscape:pagecheckerboard="0"
     inkscape:deskcolor="#d1d1d1"
     inkscape:document-units="mm"
     showgrid="false"
     inkscape:zoom="0.69931958"
     inkscape:cx="-280.27243"
     inkscape:cy="539.81042"
     inkscape:window-width="1920"
     inkscape:window-height="1011"
     inkscape:window-x="0"
     inkscape:window-y="0"
     inkscape:window-maximized="1"
     inkscape:current-layer="layer1" />
  <g
     inkscape:label="Calque 1"
     inkscape:groupmode="layer"
     id="layer1"
     transform="translate(-179.47813,-6.1375362)">
    <g
       id="g76"
       transform="matrix(0.35277777,0,0,-0.35277777,229.69655,52.148998)"
       >
      <path
         d="m 0,0 c 12.975,4.138 14.107,0.91 23.137,3.397 9.029,2.486 23.877,0.105 29.585,3.251 5.709,3.145 35.767,13.301 39.555,17.136 3.788,3.834 8.866,2.258 19.839,13.698 10.973,11.44 12.239,9.84 14.709,20.486 2.468,10.646 3.881,15.497 -0.736,19.156 -4.616,3.66 -9.648,11.066 -13.296,11.271 -3.647,0.204 -26.503,4.885 -29.142,5.055 -2.638,0.169 -8.959,-0.467 -12.73,2.93 -3.77,3.397 -12.577,11.79 -17.171,11.638 -4.593,-0.152 -15.764,0.625 -20.299,-2.329 -4.535,-2.953 -11.913,-9.385 -11.913,-9.385 l -1.605,9.776 c 0,0 -2.708,11.604 -5.638,12.327 -2.93,0.724 -17.761,10.337 -20.271,9.724 -2.509,-0.612 -13.412,3.421 -17.358,1.769 -3.945,-1.652 -24.63,-1.634 -27.858,-2.766 -3.227,-1.133 -12.234,-7.43 -15.076,-10.909 -2.842,-3.478 -2.802,-13.512 -2.802,-13.512 l 1.08,-24.922 10.856,-36.771 z"
         style="fill:#b1191d;fill-opacity:1;fill-rule:nonzero;stroke:none"
         id="path78" />
    </g>
    <g
       id="g80"
       transform="matrix(0.35277777,0,0,-0.35277777,229.69655,52.148998)"
       >
      <path
         d="m 0,0 c 12.975,4.138 14.107,0.91 23.137,3.397 9.029,2.486 23.877,0.105 29.585,3.251 5.709,3.145 35.767,13.301 39.555,17.136 3.788,3.834 8.866,2.258 19.839,13.698 10.973,11.44 12.239,9.84 14.709,20.486 2.468,10.646 3.881,15.497 -0.736,19.156 -4.616,3.66 -9.648,11.066 -13.296,11.271 -3.647,0.204 -26.503,4.885 -29.142,5.055 -2.638,0.169 -8.959,-0.467 -12.73,2.93 -3.77,3.397 -12.577,11.79 -17.171,11.638 -4.593,-0.152 -15.764,0.625 -20.299,-2.329 -4.535,-2.953 -11.913,-9.385 -11.913,-9.385 l -1.605,9.776 c 0,0 -2.708,11.604 -5.638,12.327 -2.93,0.724 -17.761,10.337 -20.271,9.724 -2.509,-0.612 -13.412,3.421 -17.358,1.769 -3.945,-1.652 -24.63,-1.634 -27.858,-2.766 -3.227,-1.133 -12.234,-7.43 -15.076,-10.909 -2.842,-3.478 -2.802,-13.512 -2.802,-13.512 l 1.08,-24.922 10.856,-36.771 z"
         style="fill:none;stroke:#be1823;stroke-width:0.25;stroke-linecap:butt;stroke-linejoin:miter;stroke-miterlimit:10;stroke-dasharray:none;stroke-opacity:1"
         id="path82" />
    </g>
    <g
       id="g84"
       transform="matrix(0.35277777,0,0,-0.35277777,227.02402,54.854557)"
       >
      <path
         d="m 0,0 c 0,0 6.023,-14.673 6.945,-23.959 0.922,-9.286 4.176,-26.111 4.176,-26.111 0,0 1.462,-16.917 0.586,-20.084 -0.875,-3.166 1.115,-15.288 -1.47,-20.331 -2.586,-5.043 -2.662,-9.473 -4.501,-15.397 -1.838,-5.924 -2.719,-6.671 -5.212,-13.506 -2.492,-6.835 -6.764,-8.942 -10.459,-14.568 -3.695,-5.627 -7.512,-8.061 -9.759,-7.827 -2.247,0.233 -9.41,-1.524 -14.035,0.417 -4.625,1.941 -12.522,3.817 -14.874,10.68 -2.352,6.862 -6.297,18.664 -11.854,24.378 -5.556,5.714 -15.171,8.658 -18.973,16.816 -3.801,8.159 -8.371,17.65 -7.32,21.035 1.05,3.385 -3.514,1.833 0.969,9.998 l 4.482,8.165 c 0,0 -8.545,-4.214 -13.95,-3.093 -5.404,1.121 -19.686,8.615 -22.704,13.541 -3.017,4.926 -8.655,17.253 -9.367,19.144 -0.712,1.891 -7.483,17.446 -6.327,23.861 1.156,6.414 -3.66,8.836 1.243,15.665 4.903,6.829 5.591,8.749 8.662,12.064 3.07,3.315 9.362,5.352 15.327,6.934 5.965,1.582 56.037,5.018 56.037,5.018 z"
         style="fill:#b1191d;fill-opacity:1;fill-rule:nonzero;stroke:none"
         id="path86" />
    </g>
    <g
       id="g88"
       transform="matrix(0.35277777,0,0,-0.35277777,227.02402,54.854557)"
       >
      <path
         d="m 0,0 c 0,0 6.023,-14.673 6.945,-23.959 0.922,-9.286 4.176,-26.111 4.176,-26.111 0,0 1.462,-16.917 0.586,-20.084 -0.875,-3.166 1.115,-15.288 -1.47,-20.331 -2.586,-5.043 -2.662,-9.473 -4.501,-15.397 -1.838,-5.924 -2.719,-6.671 -5.212,-13.506 -2.492,-6.835 -6.764,-8.942 -10.459,-14.568 -3.695,-5.627 -7.512,-8.061 -9.759,-7.827 -2.247,0.233 -9.41,-1.524 -14.035,0.417 -4.625,1.941 -12.522,3.817 -14.874,10.68 -2.352,6.862 -6.297,18.664 -11.854,24.378 -5.556,5.714 -15.171,8.658 -18.973,16.816 -3.801,8.159 -8.371,17.65 -7.32,21.035 1.05,3.385 -3.514,1.833 0.969,9.998 l 4.482,8.165 c 0,0 -8.545,-4.214 -13.95,-3.093 -5.404,1.121 -19.686,8.615 -22.704,13.541 -3.017,4.926 -8.655,17.253 -9.367,19.144 -0.712,1.891 -7.483,17.446 -6.327,23.861 1.156,6.414 -3.66,8.836 1.243,15.665 4.903,6.829 5.591,8.749 8.662,12.064 3.07,3.315 9.362,5.352 15.327,6.934 5.965,1.582 56.037,5.018 56.037,5.018 z"
         style="fill:none;stroke:#be1823;stroke-width:0.25;stroke-linecap:butt;stroke-linejoin:miter;stroke-miterlimit:10;stroke-dasharray:none;stroke-opacity:1"
         id="path90" />
    </g>
    <g
       id="g92"
       transform="matrix(0.35277777,0,0,-0.35277777,231.86677,59.691987)"
       >
      <path
         d="m 0,0 c 2.685,-7.792 3.864,-12.716 5.288,-16.498 1.424,-3.782 1.418,-6.193 1.505,-10.395 0.088,-4.202 -0.245,-7.068 0.275,-7.786 0.519,-0.718 -1.063,-8.206 2.276,-1.634 3.339,6.572 1.71,6.706 1.617,8.498 -0.093,1.792 -0.128,14.235 -0.876,15.117 -0.747,0.881 -4.984,13.237 -4.984,13.237 0,0 -4.331,2.135 -1.326,5.841 3.006,3.706 8.902,1.828 11.149,1.595 2.247,-0.234 16.652,2.533 17.662,2.498 1.01,-0.035 9.712,1.996 10.658,2.352 0.945,0.356 8.865,2.259 5.807,3.764 -3.058,1.506 -9.245,2.499 -11.236,1.168 -1.99,-1.331 -9.87,-2.918 -9.87,-2.918 L 11.417,12.218 -1.628,19.514 c 0,0 -36.969,28.267 -42.111,30.234 -5.142,1.967 -47.282,33.602 -50.738,32.633 -3.455,-0.969 -5.091,-0.365 -2.586,-3.603 2.504,-3.238 43.6,-35.847 45.584,-36.927 1.985,-1.08 36.864,-31.296 38.72,-31.594 C -10.903,9.959 0,0 0,0"
         style="fill:#1e1f1d;fill-opacity:1;fill-rule:nonzero;stroke:none"
         id="path94" />
    </g>
    <g
       id="g96"
       transform="matrix(0.35277777,0,0,-0.35277777,255.70961,25.494027)"
       >
      <path
         d="M 0,0 C -2.074,1.489 -2.549,4.378 -1.06,6.452 0.43,8.527 3.319,9.001 5.393,7.512 7.467,6.022 7.941,3.134 6.452,1.059 4.963,-1.015 2.074,-1.489 0,0"
         style="fill:#02a19a;fill-opacity:1;fill-rule:nonzero;stroke:none"
         id="path98" />
    </g>
    <g
       id="g100"
       transform="matrix(0.35277777,0,0,-0.35277777,256.23617,33.591512)"
       >
      <path
         d="M 0,0 C -2.074,1.489 -2.548,4.378 -1.059,6.452 0.43,8.527 3.319,9.001 5.393,7.512 7.467,6.022 7.941,3.134 6.452,1.059 4.963,-1.015 2.074,-1.489 0,0"
         style="fill:#02a19a;fill-opacity:1;fill-rule:nonzero;stroke:none"
         id="path102" />
    </g>
    <g
       id="g104"
       transform="matrix(0.35277777,0,0,-0.35277777,258.25501,41.855895)"
       >
      <path
         d="M 0,0 C -2.074,1.489 -2.548,4.378 -1.059,6.452 0.43,8.527 3.319,9.001 5.393,7.512 7.468,6.022 7.942,3.134 6.453,1.059 4.963,-1.015 2.075,-1.489 0,0"
         style="fill:#02a19a;fill-opacity:1;fill-rule:nonzero;stroke:none"
         id="path106" />
    </g>
    <g
       id="g108"
       transform="matrix(0.35277777,0,0,-0.35277777,258.25501,41.855895)"
       >
      <path
         d="M 0,0 C -2.074,1.489 -2.548,4.378 -1.059,6.452 0.43,8.527 3.319,9.001 5.393,7.512 7.468,6.022 7.942,3.134 6.453,1.059 4.963,-1.015 2.075,-1.489 0,0"
         style="fill:#02a19a;fill-opacity:1;fill-rule:nonzero;stroke:none"
         id="path110" />
    </g>
    <g
       id="g112"
       transform="matrix(0.35277777,0,0,-0.35277777,218.31136,100.28778)"
       >
      <path
         d="M 0,0 C -2.075,1.489 -2.549,4.378 -1.06,6.452 0.43,8.527 3.318,9.001 5.393,7.512 7.467,6.022 7.941,3.134 6.452,1.059 4.963,-1.015 2.074,-1.489 0,0"
         style="fill:#02a19a;fill-opacity:1;fill-rule:nonzero;stroke:none"
         id="path114" />
    </g>
    <g
       id="g116"
       transform="matrix(0.35277777,0,0,-0.35277777,209.45762,89.91534)"
       >
      <path
         d="M 0,0 C -2.074,1.489 -2.548,4.378 -1.059,6.452 0.43,8.527 3.319,9.001 5.393,7.512 7.467,6.022 7.942,3.134 6.453,1.059 4.963,-1.015 2.074,-1.489 0,0"
         style="fill:#02a19a;fill-opacity:1;fill-rule:nonzero;stroke:none"
         id="path118" />
    </g>
    <g
       id="g120"
       transform="matrix(0.35277777,0,0,-0.35277777,193.23108,69.717437)"
       >
      <path
         d="M 0,0 C -2.074,1.489 -2.549,4.378 -1.06,6.452 0.43,8.527 3.319,9.001 5.393,7.512 7.467,6.022 7.941,3.134 6.452,1.059 4.963,-1.015 2.074,-1.489 0,0"
         style="fill:#f9b233;fill-opacity:1;fill-rule:nonzero;stroke:none"
         id="path122" />
    </g>
    <g
       id="g124"
       transform="matrix(0.35277777,0,0,-0.35277777,188.33886,63.649412)"
       >
      <path
         d="M 0,0 C -2.074,1.489 -2.549,4.378 -1.06,6.452 0.43,8.527 3.319,9.001 5.393,7.512 7.467,6.022 7.941,3.134 6.452,1.059 4.963,-1.015 2.074,-1.489 0,0"
         style="fill:#f9b233;fill-opacity:1;fill-rule:nonzero;stroke:none"
         id="path126" />
    </g>
    <g
       id="g128"
       transform="matrix(0.35277777,0,0,-0.35277777,188.26616,68.920265)"
       >
      <path
         d="M 0,0 C -2.074,1.489 -2.548,4.378 -1.059,6.452 0.43,8.527 3.319,9.001 5.394,7.512 7.468,6.022 7.942,3.134 6.453,1.059 4.963,-1.015 2.075,-1.489 0,0"
         style="fill:#f9b233;fill-opacity:1;fill-rule:nonzero;stroke:none"
         id="path130" />
    </g>
    <g
       id="g132"
       transform="matrix(0.35277777,0,0,-0.35277777,185.79258,56.008846)"
       >
      <path
         d="M 0,0 C -2.074,1.489 -2.548,4.378 -1.059,6.452 0.43,8.527 3.319,9.001 5.393,7.512 7.467,6.022 7.942,3.134 6.453,1.059 4.963,-1.015 2.074,-1.489 0,0"
         style="fill:#f9b233;fill-opacity:1;fill-rule:nonzero;stroke:none"
         id="path134" />
    </g>
    <g
       id="g136"
       transform="matrix(0.35277777,0,0,-0.35277777,181.96749,53.262577)"
       >
      <path
         d="M 0,0 C -2.074,1.489 -2.548,4.378 -1.059,6.452 0.43,8.527 3.319,9.001 5.393,7.512 7.467,6.022 7.942,3.134 6.453,1.059 4.963,-1.015 2.074,-1.489 0,0"
         style="fill:#f9b233;fill-opacity:1;fill-rule:nonzero;stroke:none"
         id="path138" />
    </g>
    <g
       id="g140"
       transform="matrix(0.35277777,0,0,-0.35277777,183.48058,60.161393)"
       >
      <path
         d="M 0,0 C -2.074,1.489 -2.549,4.378 -1.06,6.452 0.43,8.527 3.319,9.001 5.393,7.512 7.467,6.022 7.941,3.134 6.452,1.059 4.963,-1.015 2.074,-1.489 0,0"
         style="fill:#f9b233;fill-opacity:1;fill-rule:nonzero;stroke:none"
         id="path142" />
    </g>
    <g
       id="g144"
       transform="matrix(0.35277777,0,0,-0.35277777,192.63266,50.210661)"
       >
      <path
         d="M 0,0 C -2.074,1.489 -2.548,4.378 -1.059,6.452 0.43,8.527 3.319,9.001 5.394,7.512 7.468,6.022 7.942,3.134 6.453,1.059 4.963,-1.015 2.075,-1.489 0,0"
         style="fill:#f9b233;fill-opacity:1;fill-rule:nonzero;stroke:none"
         id="path146" />
    </g>
    <g
       id="g148"
       transform="matrix(0.35277777,0,0,-0.35277777,196.50546,52.274552)"
       >
      <path
         d="M 0,0 C -2.074,1.489 -2.548,4.378 -1.059,6.452 0.43,8.527 3.319,9.001 5.393,7.512 7.467,6.022 7.942,3.134 6.453,1.059 4.963,-1.015 2.074,-1.489 0,0"
         style="fill:#f9b233;fill-opacity:1;fill-rule:nonzero;stroke:none"
         id="path150" />
    </g>
    <g
       id="g152"
       transform="matrix(0.35277777,0,0,-0.35277777,192.84193,58.388755)"
       >
      <path
         d="M 0,0 C -1.977,1.616 -2.27,4.529 -0.653,6.506 0.963,8.483 3.875,8.776 5.853,7.159 7.83,5.543 8.122,2.63 6.506,0.653 4.89,-1.324 1.977,-1.616 0,0"
         style="fill:#f9b233;fill-opacity:1;fill-rule:nonzero;stroke:none"
         id="path154" />
    </g>
    <g
       id="g156"
       transform="matrix(0.35277777,0,0,-0.35277777,199.41104,56.019076)"
       >
      <path
         d="M 0,0 C -1.977,1.616 -2.27,4.529 -0.653,6.506 0.963,8.483 3.875,8.776 5.853,7.159 7.83,5.543 8.122,2.63 6.506,0.653 4.89,-1.324 1.977,-1.616 0,0"
         style="fill:#f9b233;fill-opacity:1;fill-rule:nonzero;stroke:none"
         id="path158" />
    </g>
    <g
       id="g160"
       transform="matrix(0.35277777,0,0,-0.35277777,203.48608,52.461983)"
       >
      <path
         d="M 0,0 C -1.977,1.616 -2.27,4.529 -0.653,6.506 0.963,8.483 3.876,8.776 5.853,7.159 7.83,5.543 8.122,2.63 6.506,0.653 4.89,-1.324 1.977,-1.616 0,0"
         style="fill:#f9b233;fill-opacity:1;fill-rule:nonzero;stroke:none"
         id="path162" />
    </g>
    <g
       id="g164"
       transform="matrix(0.35277777,0,0,-0.35277777,211.3664,49.876404)"
       >
      <path
         d="M 0,0 C -1.977,1.616 -2.27,4.529 -0.653,6.506 0.963,8.483 3.875,8.776 5.853,7.159 7.83,5.543 8.122,2.63 6.506,0.653 4.89,-1.324 1.977,-1.616 0,0"
         style="fill:#f9b233;fill-opacity:1;fill-rule:nonzero;stroke:none"
         id="path166" />
    </g>
    <g
       id="g168"
       transform="matrix(0.35277777,0,0,-0.35277777,186.51451,50.026264)"
       >
      <path
         d="M 0,0 C -2.222,1.258 -3.004,4.079 -1.746,6.301 -0.488,8.524 2.333,9.305 4.556,8.047 6.778,6.789 7.56,3.968 6.301,1.746 5.043,-0.477 2.222,-1.258 0,0"
         style="fill:#f9b233;fill-opacity:1;fill-rule:nonzero;stroke:none"
         id="path170" />
    </g>
    <g
       id="g172"
       transform="matrix(0.35277777,0,0,-0.35277777,202.80293,60.462312)"
       >
      <path
         d="M 0,0 C -1.977,1.616 -2.27,4.529 -0.653,6.506 0.963,8.483 3.876,8.776 5.853,7.159 7.83,5.543 8.122,2.63 6.506,0.653 4.89,-1.324 1.977,-1.616 0,0"
         style="fill:#f9b233;fill-opacity:1;fill-rule:nonzero;stroke:none"
         id="path174" />
    </g>
    <g
       id="g176"
       transform="matrix(0.35277777,0,0,-0.35277777,207.11274,55.801165)"
       >
      <path
         d="M 0,0 C -1.977,1.616 -2.27,4.529 -0.653,6.506 0.962,8.483 3.875,8.776 5.853,7.159 7.83,5.543 8.122,2.63 6.506,0.653 4.89,-1.324 1.977,-1.616 0,0"
         style="fill:#f9b233;fill-opacity:1;fill-rule:nonzero;stroke:none"
         id="path178" />
    </g>
    <g
       id="g180"
       transform="matrix(0.35277777,0,0,-0.35277777,196.74076,61.857231)"
       >
      <path
         d="M 0,0 C -1.977,1.616 -2.27,4.529 -0.653,6.506 0.962,8.483 3.875,8.776 5.853,7.159 7.83,5.543 8.122,2.63 6.506,0.653 4.89,-1.324 1.977,-1.616 0,0"
         style="fill:#f9b233;fill-opacity:1;fill-rule:nonzero;stroke:none"
         id="path182" />
    </g>
    <g
       id="g184"
       transform="matrix(0.35277777,0,0,-0.35277777,199.12769,68.378257)"
       >
      <path
         d="M 0,0 C -1.977,1.616 -2.27,4.529 -0.653,6.506 0.963,8.483 3.875,8.776 5.853,7.159 7.83,5.543 8.122,2.63 6.506,0.653 4.89,-1.324 1.977,-1.616 0,0"
         style="fill:#f9b233;fill-opacity:1;fill-rule:nonzero;stroke:none"
         id="path186" />
    </g>
    <g
       id="g188"
       transform="matrix(0.35277777,0,0,-0.35277777,201.29897,48.859663)"
       >
      <path
         d="M 0,0 C -2.293,1.124 -3.241,3.894 -2.117,6.187 -0.993,8.48 1.777,9.427 4.07,8.304 6.363,7.18 7.311,4.41 6.187,2.117 5.063,-0.176 2.293,-1.124 0,0"
         style="fill:#f9b233;fill-opacity:1;fill-rule:nonzero;stroke:none"
         id="path190" />
    </g>
    <g
       id="g192"
       transform="matrix(0.35277777,0,0,-0.35277777,201.29897,48.859663)"
       >
      <path
         d="M 0,0 C -2.293,1.124 -3.241,3.894 -2.117,6.187 -0.993,8.48 1.777,9.427 4.07,8.304 6.363,7.18 7.311,4.41 6.187,2.117 5.063,-0.176 2.293,-1.124 0,0"
         style="fill:#f9b233;fill-opacity:1;fill-rule:nonzero;stroke:none"
         id="path194" />
    </g>
    <g
       id="g196"
       transform="matrix(0.35277777,0,0,-0.35277777,206.97132,46.696959)"
       >
      <path
         d="M 0,0 C -2.293,1.124 -3.241,3.894 -2.117,6.187 -0.993,8.48 1.777,9.427 4.07,8.304 6.363,7.18 7.311,4.41 6.187,2.117 5.063,-0.176 2.293,-1.124 0,0"
         style="fill:#f9b233;fill-opacity:1;fill-rule:nonzero;stroke:none"
         id="path198" />
    </g>
    <g
       id="g200"
       transform="matrix(0.35277777,0,0,-0.35277777,195.30485,45.7186)"
       >
      <path
         d="M 0,0 C -2.293,1.124 -3.241,3.894 -2.117,6.187 -0.993,8.48 1.777,9.427 4.07,8.304 6.363,7.18 7.311,4.41 6.187,2.117 5.063,-0.176 2.293,-1.124 0,0"
         style="fill:#f9b233;fill-opacity:1;fill-rule:nonzero;stroke:none"
         id="path202" />
    </g>
    <g
       id="g204"
       transform="matrix(0.35277777,0,0,-0.35277777,208.17228,20.025266)"
       >
      <path
         d="M 0,0 C -2.293,1.124 -3.241,3.894 -2.117,6.187 -0.993,8.48 1.776,9.427 4.069,8.304 6.362,7.18 7.311,4.41 6.187,2.117 5.062,-0.176 2.293,-1.124 0,0"
         style="fill:#f9b233;fill-opacity:1;fill-rule:nonzero;stroke:none"
         id="path206" />
    </g>
    <g
       id="g208"
       transform="matrix(0.35277777,0,0,-0.35277777,209.06025,24.997916)"
       >
      <path
         d="M 0,0 C -2.293,1.124 -3.241,3.894 -2.117,6.187 -0.993,8.48 1.777,9.427 4.07,8.304 6.363,7.18 7.311,4.41 6.187,2.117 5.063,-0.176 2.293,-1.124 0,0"
         style="fill:#f9b233;fill-opacity:1;fill-rule:nonzero;stroke:none"
         id="path210" />
    </g>
    <g
       id="g212"
       transform="matrix(0.35277777,0,0,-0.35277777,212.24764,28.016494)"
       >
      <path
         d="M 0,0 C -2.293,1.124 -3.241,3.894 -2.117,6.187 -0.993,8.48 1.776,9.427 4.069,8.304 6.362,7.18 7.31,4.41 6.187,2.117 5.062,-0.176 2.293,-1.124 0,0"
         style="fill:#f9b233;fill-opacity:1;fill-rule:nonzero;stroke:none"
         id="path214" />
    </g>
    <g
       id="g216"
       transform="matrix(0.35277777,0,0,-0.35277777,209.6423,14.203869)"
       >
      <path
         d="M 0,0 C -2.293,1.124 -3.241,3.894 -2.117,6.187 -0.993,8.48 1.777,9.427 4.07,8.304 6.363,7.18 7.311,4.41 6.187,2.117 5.063,-0.176 2.293,-1.124 0,0"
         style="fill:#f9b233;fill-opacity:1;fill-rule:nonzero;stroke:none"
         id="path218" />
    </g>
    <g
       id="g220"
       transform="matrix(0.35277777,0,0,-0.35277777,214.41856,12.363109)"
       >
      <path
         d="M 0,0 C -2.293,1.124 -3.241,3.894 -2.117,6.187 -0.993,8.48 1.777,9.427 4.07,8.304 6.363,7.18 7.311,4.41 6.187,2.117 5.063,-0.176 2.293,-1.124 0,0"
         style="fill:#f9b233;fill-opacity:1;fill-rule:nonzero;stroke:none"
         id="path222" />
    </g>
    <g
       id="g224"
       transform="matrix(0.35277777,0,0,-0.35277777,219.04309,12.655068)"
       >
      <path
         d="M 0,0 C -2.293,1.124 -3.241,3.894 -2.117,6.187 -0.993,8.48 1.777,9.427 4.07,8.304 6.363,7.18 7.311,4.41 6.187,2.117 5.063,-0.176 2.293,-1.124 0,0"
         style="fill:#f9b233;fill-opacity:1;fill-rule:nonzero;stroke:none"
         id="path226" />
    </g>
    <g
       id="g228"
       transform="matrix(0.35277777,0,0,-0.35277777,214.30384,19.558929)"
       >
      <path
         d="M 0,0 C -2.293,1.124 -3.241,3.894 -2.117,6.187 -0.993,8.48 1.777,9.427 4.07,8.304 6.363,7.18 7.311,4.41 6.187,2.117 5.063,-0.176 2.293,-1.124 0,0"
         style="fill:#f9b233;fill-opacity:1;fill-rule:nonzero;stroke:none"
         id="path230" />
    </g>
    <g
       id="g232"
       transform="matrix(0.35277777,0,0,-0.35277777,211.03722,32.499135)"
       >
      <path
         d="M 0,0 C -2.293,1.124 -3.241,3.894 -2.117,6.187 -0.993,8.48 1.776,9.427 4.069,8.304 6.362,7.18 7.311,4.41 6.187,2.117 5.062,-0.176 2.293,-1.124 0,0"
         style="fill:#f9b233;fill-opacity:1;fill-rule:nonzero;stroke:none"
         id="path234" />
    </g>
    <g
       id="g236"
       transform="matrix(0.35277777,0,0,-0.35277777,212.83797,37.279098)"
       >
      <path
         d="M 0,0 C -2.293,1.124 -3.241,3.894 -2.117,6.187 -0.993,8.48 1.776,9.427 4.069,8.304 6.362,7.18 7.31,4.41 6.187,2.117 5.062,-0.176 2.293,-1.124 0,0"
         style="fill:#f9b233;fill-opacity:1;fill-rule:nonzero;stroke:none"
         id="path238" />
    </g>
    <g
       id="g240"
       transform="matrix(0.35277777,0,0,-0.35277777,217.04132,41.270531)"
       >
      <path
         d="M 0,0 C -2.293,1.124 -3.241,3.894 -2.117,6.187 -0.993,8.48 1.776,9.427 4.069,8.304 6.362,7.18 7.31,4.41 6.187,2.117 5.062,-0.176 2.293,-1.124 0,0"
         style="fill:#f9b233;fill-opacity:1;fill-rule:nonzero;stroke:none"
         id="path242" />
    </g>
    <g
       id="g244"
       transform="matrix(0.35277777,0,0,-0.35277777,216.09305,33.991844)"
       >
      <path
         d="M 0,0 C -2.293,1.124 -3.241,3.894 -2.117,6.187 -0.993,8.48 1.777,9.427 4.07,8.304 6.363,7.18 7.311,4.41 6.187,2.117 5.063,-0.176 2.293,-1.124 0,0"
         style="fill:#f9b233;fill-opacity:1;fill-rule:nonzero;stroke:none"
         id="path246" />
    </g>
    <g
       id="g248"
       transform="matrix(0.35277777,0,0,-0.35277777,216.60913,27.535023)"
       >
      <path
         d="M 0,0 C -2.293,1.124 -3.241,3.894 -2.117,6.187 -0.993,8.48 1.777,9.427 4.07,8.304 6.363,7.18 7.311,4.41 6.187,2.117 5.063,-0.176 2.293,-1.124 0,0"
         style="fill:#f9b233;fill-opacity:1;fill-rule:nonzero;stroke:none"
         id="path250" />
    </g>
    <g
       id="g252"
       transform="matrix(0.35277777,0,0,-0.35277777,219.76882,31.70274)"
       >
      <path
         d="M 0,0 C -2.293,1.124 -3.241,3.894 -2.117,6.187 -0.993,8.48 1.777,9.427 4.07,8.304 6.363,7.18 7.311,4.41 6.187,2.117 5.063,-0.176 2.293,-1.124 0,0"
         style="fill:#f9b233;fill-opacity:1;fill-rule:nonzero;stroke:none"
         id="path254" />
    </g>
    <g
       id="g256"
       transform="matrix(0.35277777,0,0,-0.35277777,219.734,35.7763)"
       >
      <path
         d="M 0,0 C -2.293,1.124 -3.241,3.894 -2.117,6.187 -0.993,8.48 1.777,9.427 4.07,8.304 6.363,7.18 7.311,4.41 6.187,2.117 5.063,-0.176 2.293,-1.124 0,0"
         style="fill:#f9b233;fill-opacity:1;fill-rule:nonzero;stroke:none"
         id="path258" />
    </g>
    <g
       id="g260"
       transform="matrix(0.35277777,0,0,-0.35277777,218.51188,17.426881)"
       >
      <path
         d="M 0,0 C -2.293,1.124 -3.241,3.894 -2.117,6.187 -0.993,8.48 1.777,9.427 4.07,8.304 6.363,7.18 7.311,4.41 6.187,2.117 5.063,-0.176 2.293,-1.124 0,0"
         style="fill:#f9b233;fill-opacity:1;fill-rule:nonzero;stroke:none"
         id="path262" />
    </g>
    <g
       id="g264"
       transform="matrix(0.35277777,0,0,-0.35277777,221.11756,22.442605)"
       >
      <path
         d="M 0,0 C -2.293,1.124 -3.241,3.894 -2.117,6.187 -0.993,8.48 1.776,9.427 4.069,8.304 6.362,7.18 7.31,4.41 6.187,2.117 5.062,-0.176 2.293,-1.124 0,0"
         style="fill:#f9b233;fill-opacity:1;fill-rule:nonzero;stroke:none"
         id="path266" />
    </g>
    <g
       id="g268"
       transform="matrix(0.35277777,0,0,-0.35277777,227.91852,23.161214)"
       >
      <path
         d="M 0,0 C -2.293,1.124 -3.241,3.894 -2.117,6.187 -0.993,8.48 1.777,9.427 4.07,8.304 6.363,7.18 7.311,4.41 6.187,2.117 5.063,-0.176 2.293,-1.124 0,0"
         style="fill:#f9b233;fill-opacity:1;fill-rule:nonzero;stroke:none"
         id="path270" />
    </g>
    <g
       id="g272"
       transform="matrix(0.35277777,0,0,-0.35277777,223.26714,27.423369)"
       >
      <path
         d="M 0,0 C -2.293,1.124 -3.241,3.894 -2.117,6.187 -0.993,8.48 1.777,9.427 4.07,8.304 6.363,7.18 7.311,4.41 6.187,2.117 5.063,-0.176 2.293,-1.124 0,0"
         style="fill:#f9b233;fill-opacity:1;fill-rule:nonzero;stroke:none"
         id="path274" />
    </g>
    <g
       id="g276"
       transform="matrix(0.35277777,0,0,-0.35277777,224.95437,15.911489)"
       >
      <path
         d="M 0,0 C -2.293,1.124 -3.241,3.894 -2.117,6.187 -0.993,8.48 1.777,9.427 4.07,8.304 6.363,7.18 7.311,4.41 6.187,2.117 5.063,-0.176 2.293,-1.124 0,0"
         style="fill:#f9b233;fill-opacity:1;fill-rule:nonzero;stroke:none"
         id="path278" />
    </g>
    <g
       id="g280"
       transform="matrix(0.35277777,0,0,-0.35277777,230.18039,15.920979)"
       >
      <path
         d="M 0,0 C -2.293,1.124 -3.241,3.894 -2.117,6.187 -0.993,8.48 1.777,9.427 4.07,8.304 6.363,7.18 7.311,4.41 6.187,2.117 5.063,-0.176 2.293,-1.124 0,0"
         style="fill:#f9b233;fill-opacity:1;fill-rule:nonzero;stroke:none"
         id="path282" />
    </g>
    <g
       id="g284"
       transform="matrix(0.35277777,0,0,-0.35277777,231.4022,20.540745)"
       >
      <path
         d="M 0,0 C -2.293,1.124 -3.241,3.894 -2.117,6.187 -0.993,8.48 1.777,9.427 4.07,8.304 6.363,7.18 7.311,4.41 6.187,2.117 5.063,-0.176 2.293,-1.124 0,0"
         style="fill:#f9b233;fill-opacity:1;fill-rule:nonzero;stroke:none"
         id="path286" />
    </g>
    <g
       id="g288"
       transform="matrix(0.35277777,0,0,-0.35277777,217.33123,87.779765)"
       >
      <path
         d="M 0,0 C -2.074,1.489 -2.549,4.378 -1.06,6.452 0.43,8.527 3.319,9.001 5.393,7.512 7.467,6.022 7.941,3.134 6.452,1.059 4.963,-1.015 2.074,-1.489 0,0"
         style="fill:#02a19a;fill-opacity:1;fill-rule:nonzero;stroke:none"
         id="path290" />
    </g>
    <g
       id="g292"
       transform="matrix(0.35277777,0,0,-0.35277777,224.97434,86.939166)"
       >
      <path
         d="M 0,0 C -2.074,1.489 -2.548,4.378 -1.059,6.452 0.43,8.527 3.319,9.001 5.393,7.512 7.468,6.022 7.942,3.134 6.453,1.059 4.963,-1.015 2.074,-1.489 0,0"
         style="fill:#02a19a;fill-opacity:1;fill-rule:nonzero;stroke:none"
         id="path294" />
    </g>
    <g
       id="g296"
       transform="matrix(0.35277777,0,0,-0.35277777,222.60653,94.305307)"
       >
      <path
         d="M 0,0 C -2.075,1.489 -2.549,4.378 -1.06,6.452 0.43,8.527 3.318,9.001 5.393,7.512 7.467,6.022 7.941,3.134 6.452,1.059 4.963,-1.015 2.074,-1.489 0,0"
         style="fill:#02a19a;fill-opacity:1;fill-rule:nonzero;stroke:none"
         id="path298" />
    </g>
    <g
       id="g300"
       transform="matrix(0.35277777,0,0,-0.35277777,213.73403,97.001552)"
       >
      <path
         d="M 0,0 C -2.074,1.489 -2.548,4.378 -1.059,6.452 0.43,8.527 3.319,9.001 5.393,7.512 7.467,6.022 7.942,3.134 6.453,1.059 4.963,-1.015 2.074,-1.489 0,0"
         style="fill:#02a19a;fill-opacity:1;fill-rule:nonzero;stroke:none"
         id="path302" />
    </g>
    <g
       id="g304"
       transform="matrix(0.35277777,0,0,-0.35277777,264.56313,35.866505)"
       >
      <path
         d="M 0,0 C -2.074,1.489 -2.548,4.378 -1.059,6.452 0.43,8.527 3.319,9.001 5.393,7.512 7.467,6.022 7.942,3.134 6.453,1.059 4.963,-1.015 2.074,-1.489 0,0"
         style="fill:#02a19a;fill-opacity:1;fill-rule:nonzero;stroke:none"
         id="path306" />
    </g>
    <g
       id="g308"
       transform="matrix(0.35277777,0,0,-0.35277777,268.36826,30.566583)"
       >
      <path
         d="M 0,0 C -2.074,1.489 -2.548,4.378 -1.059,6.452 0.43,8.527 3.319,9.001 5.393,7.512 7.468,6.022 7.942,3.134 6.453,1.059 4.963,-1.015 2.074,-1.489 0,0"
         style="fill:#02a19a;fill-opacity:1;fill-rule:nonzero;stroke:none"
         id="path310" />
    </g>
    <g
       id="g312"
       transform="matrix(0.35277777,0,0,-0.35277777,263.1467,27.669502)"
       >
      <path
         d="M 0,0 C -2.075,1.489 -2.549,4.378 -1.06,6.452 0.43,8.527 3.318,9.001 5.393,7.512 7.467,6.022 7.941,3.134 6.452,1.059 4.963,-1.015 2.074,-1.489 0,0"
         style="fill:#02a19a;fill-opacity:1;fill-rule:nonzero;stroke:none"
         id="path314" />
    </g>
    <g
       id="g316"
       transform="matrix(0.35277777,0,0,-0.35277777,238.01661,17.558609)"
       >
      <path
         d="m 0,0 c -2.963,-3.504 -9.623,-9.417 -13.936,-14.944 -4.313,-5.527 -6.893,-8.159 -10.943,-12.84 -4.051,-4.681 -7.787,-13.728 -12.584,-17.528 -4.798,-3.799 -9.951,-11.139 -10.208,-14.059 -0.258,-2.919 1.017,-4.988 1.196,-9.542 0.181,-4.555 1.141,-11.388 1.141,-11.388"
         style="fill:none;stroke:#be1823;stroke-width:0.25;stroke-linecap:butt;stroke-linejoin:miter;stroke-miterlimit:10;stroke-dasharray:none;stroke-opacity:1"
         id="path318" />
    </g>
    <g
       id="g320"
       transform="matrix(0.35277777,0,0,-0.35277777,220.00307,50.142116)"
       >
      <path
         d="m 0,0 c -12.813,-3.669 -13.326,-2.266 -18.637,-8.801 -5.312,-6.535 -11.861,-7.008 -15.269,-15.6 -3.409,-8.591 -18.229,-21.597 -18.762,-26.639 -0.534,-5.042 -8.729,-12.612 -8.729,-12.612"
         style="fill:none;stroke:#e94f1d;stroke-width:0.25;stroke-linecap:butt;stroke-linejoin:miter;stroke-miterlimit:10;stroke-dasharray:none;stroke-opacity:1"
         id="path322" />
    </g>
  </g>
</svg>
